<svg width="80" height="80" viewBox="0 0 80 80" fill="none" xmlns="http://www.w3.org/2000/svg">
<rect width="80" height="80" rx="40" fill="#F7C600"/>
<path d="M34.6667 25.9167V30.2917" stroke="#031AAF" stroke-width="1.5" stroke-miterlimit="10" stroke-linecap="round" stroke-linejoin="round"/>
<path d="M46.3333 25.9167V30.2917" stroke="#031AAF" stroke-width="1.5" stroke-miterlimit="10" stroke-linecap="round" stroke-linejoin="round"/>
<path d="M28.1042 36.2562H52.8959" stroke="#031AAF" stroke-width="1.5" stroke-miterlimit="10" stroke-linecap="round" stroke-linejoin="round"/>
<path d="M53.625 35.3958V47.7917C53.625 52.1667 51.4375 55.0833 46.3333 55.0833H34.6667C29.5625 55.0833 27.375 52.1667 27.375 47.7917V35.3958C27.375 31.0208 29.5625 28.1042 34.6667 28.1042H46.3333C51.4375 28.1042 53.625 31.0208 53.625 35.3958Z" stroke="#031AAF" stroke-width="1.5" stroke-miterlimit="10" stroke-linecap="round" stroke-linejoin="round"/>
<path d="M45.8881 42.9792H45.9012" stroke="#031AAF" stroke-width="2" stroke-linecap="round" stroke-linejoin="round"/>
<path d="M45.8881 47.3542H45.9012" stroke="#031AAF" stroke-width="2" stroke-linecap="round" stroke-linejoin="round"/>
<path d="M40.4934 42.9792H40.5065" stroke="#031AAF" stroke-width="2" stroke-linecap="round" stroke-linejoin="round"/>
<path d="M40.4934 47.3542H40.5065" stroke="#031AAF" stroke-width="2" stroke-linecap="round" stroke-linejoin="round"/>
<path d="M35.0959 42.9792H35.109" stroke="#031AAF" stroke-width="2" stroke-linecap="round" stroke-linejoin="round"/>
<path d="M35.0959 47.3542H35.109" stroke="#031AAF" stroke-width="2" stroke-linecap="round" stroke-linejoin="round"/>
</svg>
