<svg width="27" height="16" viewBox="0 0 27 16" fill="none" xmlns="http://www.w3.org/2000/svg">
<g clip-path="url(#clip0_170_1600)">
<rect y="0.5" width="27" height="15" rx="3" fill="black"/>
<path fill-rule="evenodd" clip-rule="evenodd" d="M0 0.5H11.5714V7.5H0V0.5Z" fill="#1A47B8"/>
<path fill-rule="evenodd" clip-rule="evenodd" d="M11.5714 0.5V1.5H27V0.5H11.5714ZM11.5714 2.5V3.5H27V2.5H11.5714ZM11.5714 4.5V5.5H27V4.5H11.5714ZM11.5714 6.5V7.5H27V6.5H11.5714ZM0 8.5V9.5H27V8.5H0ZM0 10.5V11.5H27V10.5H0ZM0 12.5V13.5H27V12.5H0ZM0 14.5V15.5H27V14.5H0Z" fill="#F93939"/>
<path fill-rule="evenodd" clip-rule="evenodd" d="M1.28577 1.5V2.5H2.57148V1.5H1.28577ZM3.8572 1.5V2.5H5.14291V1.5H3.8572ZM6.42862 1.5V2.5H7.71434V1.5H6.42862ZM9.00005 1.5V2.5H10.2858V1.5H9.00005ZM7.71434 2.5V3.5H9.00005V2.5H7.71434ZM5.14291 2.5V3.5H6.42862V2.5H5.14291ZM2.57148 2.5V3.5H3.8572V2.5H2.57148ZM1.28577 3.5V4.5H2.57148V3.5H1.28577ZM3.8572 3.5V4.5H5.14291V3.5H3.8572ZM6.42862 3.5V4.5H7.71434V3.5H6.42862ZM9.00005 3.5V4.5H10.2858V3.5H9.00005ZM1.28577 5.5V6.5H2.57148V5.5H1.28577ZM3.8572 5.5V6.5H5.14291V5.5H3.8572ZM6.42862 5.5V6.5H7.71434V5.5H6.42862ZM9.00005 5.5V6.5H10.2858V5.5H9.00005ZM7.71434 4.5V5.5H9.00005V4.5H7.71434ZM5.14291 4.5V5.5H6.42862V4.5H5.14291ZM2.57148 4.5V5.5H3.8572V4.5H2.57148Z" fill="black"/>
</g>
<defs>
<clipPath id="clip0_170_1600">
<rect y="0.5" width="27" height="15" rx="3" fill="white"/>
</clipPath>
</defs>
</svg>
