<svg width="71" height="70" viewBox="0 0 71 70" fill="none" xmlns="http://www.w3.org/2000/svg">
<rect x="0.5" width="70" height="70" rx="35" fill="#FEF9E6"/>
<path d="M41.1105 20.9166H28.8897C23.5813 20.9166 20.4167 24.0812 20.4167 29.3895V41.5958C20.4167 46.9187 23.5813 50.0833 28.8897 50.0833H41.0959C46.4042 50.0833 49.5688 46.9187 49.5688 41.6104V29.3895C49.5834 24.0812 46.4188 20.9166 41.1105 20.9166ZM28.6272 44.4687C28.6272 45.0666 28.1313 45.5625 27.5334 45.5625C26.9355 45.5625 26.4397 45.0666 26.4397 44.4687V41.45C26.4397 40.852 26.9355 40.3562 27.5334 40.3562C28.1313 40.3562 28.6272 40.852 28.6272 41.45V44.4687ZM36.0938 44.4687C36.0938 45.0666 35.598 45.5625 35.0001 45.5625C34.4022 45.5625 33.9063 45.0666 33.9063 44.4687V38.4166C33.9063 37.8187 34.4022 37.3229 35.0001 37.3229C35.598 37.3229 36.0938 37.8187 36.0938 38.4166V44.4687ZM43.5605 44.4687C43.5605 45.0666 43.0647 45.5625 42.4667 45.5625C41.8688 45.5625 41.373 45.0666 41.373 44.4687V35.3979C41.373 34.8 41.8688 34.3041 42.4667 34.3041C43.0647 34.3041 43.5605 34.8 43.5605 35.3979V44.4687ZM43.5605 30.7895C43.5605 31.3875 43.0647 31.8833 42.4667 31.8833C41.8688 31.8833 41.373 31.3875 41.373 30.7895V29.375C37.6542 33.1958 33.0022 35.8937 27.7959 37.1916C27.7084 37.2208 27.6209 37.2208 27.5334 37.2208C27.0376 37.2208 26.6001 36.8854 26.4688 36.3895C26.323 35.8062 26.673 35.2083 27.2709 35.0625C32.1855 33.8375 36.5605 31.2562 40.0313 27.6104H38.2084C37.6105 27.6104 37.1147 27.1145 37.1147 26.5166C37.1147 25.9187 37.6105 25.4229 38.2084 25.4229H42.4813C42.5397 25.4229 42.5834 25.452 42.6417 25.452C42.7147 25.4666 42.7876 25.4666 42.8605 25.4958C42.9334 25.525 42.9917 25.5687 43.0647 25.6125C43.1084 25.6416 43.1522 25.6562 43.1959 25.6854C43.2105 25.7 43.2105 25.7145 43.2251 25.7145C43.2834 25.7729 43.3272 25.8312 43.3709 25.8895C43.4147 25.9479 43.4584 25.9916 43.473 26.05C43.5022 26.1083 43.5022 26.1666 43.5167 26.2395C43.5313 26.3125 43.5605 26.3854 43.5605 26.4729C43.5605 26.4875 43.5751 26.502 43.5751 26.5166V30.7895H43.5605Z" fill="#031AAF"/>
</svg>
