<svg width="71" height="70" viewBox="0 0 71 70" fill="none" xmlns="http://www.w3.org/2000/svg">
<rect x="0.5" width="70" height="70" rx="35" fill="#FEF9E6"/>
<path d="M48.1104 32.1604C47.6146 31.9562 46.9583 31.8541 46.1417 31.8541H38.4417C35.9042 31.8541 35 32.7583 35 35.325V46.6125C35 47.4583 35.1021 48.1145 35.3208 48.625C35.7729 49.675 36.7354 50.0833 38.4417 50.0833H46.1417C48.6792 50.0833 49.5833 49.1645 49.5833 46.6125V35.325C49.5833 33.5895 49.175 32.6125 48.1104 32.1604ZM43.75 46.802H40.8333C40.8042 46.802 40.7604 46.802 40.7313 46.7875C40.5125 46.7729 40.3229 46.7 40.1625 46.5541C39.9 46.3645 39.7396 46.0583 39.7396 45.7083C39.7396 45.1104 40.2354 44.6145 40.8333 44.6145H43.75C44.3479 44.6145 44.8437 45.1104 44.8437 45.7083C44.8437 46.3062 44.3479 46.802 43.75 46.802Z" fill="#031AAF"/>
<path d="M48.1103 27.027V28.2083C48.1103 29.0104 47.4541 29.6666 46.652 29.6666H38.4416C34.7082 29.6666 32.8124 31.577 32.8124 35.325V48.625C32.8124 49.427 32.1562 50.0833 31.3541 50.0833H28.5103C27.927 50.0833 27.4603 49.6166 27.4603 49.0479C27.4603 48.4645 27.927 48.0125 28.5103 48.0125H31.3541V42.427H26.2499C23.0124 42.2666 20.4312 39.5979 20.4312 36.3166V27.027C20.4312 23.6583 23.1728 20.9166 26.5562 20.9166H41.9999C45.3687 20.9166 48.1103 23.6583 48.1103 27.027Z" fill="#031AAF"/>
</svg>
