<svg width="71" height="70" viewBox="0 0 71 70" fill="none" xmlns="http://www.w3.org/2000/svg">
<rect x="0.5" width="70" height="70" rx="35" fill="#FEF9E6"/>
<path d="M41.1835 20.9166H28.8168C24.7918 20.9166 23.3335 22.375 23.3335 26.4729V44.527C23.3335 48.625 24.7918 50.0833 28.8168 50.0833H41.1689C45.2085 50.0833 46.6668 48.625 46.6668 44.527V26.4729C46.6668 22.375 45.2085 20.9166 41.1835 20.9166ZM35.0002 46.1458C33.6002 46.1458 32.4481 44.9937 32.4481 43.5937C32.4481 42.1937 33.6002 41.0416 35.0002 41.0416C36.4002 41.0416 37.5522 42.1937 37.5522 43.5937C37.5522 44.9937 36.4002 46.1458 35.0002 46.1458ZM37.9168 27.1145H32.0835C31.4856 27.1145 30.9897 26.6187 30.9897 26.0208C30.9897 25.4229 31.4856 24.927 32.0835 24.927H37.9168C38.5147 24.927 39.0106 25.4229 39.0106 26.0208C39.0106 26.6187 38.5147 27.1145 37.9168 27.1145Z" fill="#031AAF"/>
</svg>
