<svg width="71" height="70" viewBox="0 0 71 70" fill="none" xmlns="http://www.w3.org/2000/svg">
<rect x="0.5" width="70" height="70" rx="35" fill="#FEF9E6"/>
<path d="M47.4687 31.7667H45.8646C45.6458 31.7667 45.427 31.8105 45.2229 31.8688L37.9458 24.5917C38.6458 23.6876 38.5875 22.3896 37.7562 21.573L36.6187 20.4355C35.7583 19.5751 34.2416 19.5751 33.3666 20.4355L32.2291 21.573C31.4125 22.3896 31.3541 23.6876 32.0541 24.5917L24.7771 31.8688C24.5729 31.8105 24.3541 31.7667 24.1354 31.7667H22.5312C21.2625 31.7667 20.2271 32.8021 20.2271 34.0709V35.6751C20.2271 36.9438 21.2625 37.9792 22.5312 37.9792H24.1354C25.4041 37.9792 26.4396 36.9438 26.4396 35.6751V34.0709C26.4396 33.8521 26.3958 33.6334 26.3375 33.4292L33.6146 26.1521C34.0083 26.4584 34.5041 26.6188 35 26.6188C35.4958 26.6188 35.9916 26.4438 36.4 26.1376L43.6771 33.4146C43.6187 33.6188 43.575 33.8376 43.575 34.0563V35.6605C43.575 36.9292 44.6104 37.9646 45.8791 37.9646H47.4833C48.7521 37.9646 49.7875 36.9292 49.7875 35.6605V34.0563C49.7583 32.7876 48.7375 31.7667 47.4687 31.7667Z" fill="#031AAF"/>
<path d="M40.4689 42.1354L38.0772 44.25H31.8647L29.473 42.1354C28.0876 40.9979 28.0876 40.1229 29.1376 38.7812L33.3522 33.4438C33.6439 33.0792 33.9793 32.8312 34.3584 32.7C34.7522 32.5688 35.1751 32.5688 35.5834 32.7C35.948 32.8312 36.2834 33.0792 36.5897 33.4438L40.8043 38.7812C41.8543 40.1083 41.8105 40.9396 40.4689 42.1354Z" fill="#031AAF"/>
<path d="M36.8814 50.0834H33.1043C31.7626 50.0834 30.7564 48.9896 31.0189 47.823L31.471 45.7959C31.5585 45.3876 31.923 45.1105 32.3314 45.1105H37.6543C38.0626 45.1105 38.4126 45.3876 38.5147 45.7959L38.9668 47.823C39.2585 49.0626 38.3105 50.0834 36.8814 50.0834Z" fill="#031AAF"/>
</svg>
