<svg width="71" height="70" viewBox="0 0 71 70" fill="none" xmlns="http://www.w3.org/2000/svg">
<rect x="0.5" width="70" height="70" rx="35" fill="#FEF9E6"/>
<path d="M49.2563 28.1792C48.0167 26.8084 45.9458 26.123 42.9417 26.123H42.5917V26.0646C42.5917 23.6146 42.5917 20.5813 37.1083 20.5813H34.8917C29.4083 20.5813 29.4083 23.6292 29.4083 26.0646V26.1375H29.0583C26.0396 26.1375 23.9833 26.823 22.7438 28.1938C21.3 29.798 21.3438 31.9563 21.4896 33.4292L21.5042 33.5313L21.6275 34.8258C21.6417 34.9756 21.7222 35.1107 21.848 35.1934C22.1778 35.4102 22.8415 35.8412 23.225 36.0542C23.4292 36.1855 23.6479 36.3021 23.8667 36.4188C26.3604 37.7896 29.1021 38.7084 31.8875 39.1605C32.0188 40.5313 32.6167 42.1355 35.8104 42.1355C39.0042 42.1355 39.6313 40.5459 39.7333 39.1313C42.7083 38.65 45.5813 37.6146 48.1771 36.098C48.2646 36.0542 48.3229 36.0105 48.3958 35.9667C49.0031 35.6235 49.6343 35.1966 50.2028 34.7834C50.3156 34.7015 50.3879 34.5755 50.4033 34.437L50.4375 34.1292L50.5104 33.4438C50.525 33.3563 50.525 33.2834 50.5396 33.1813C50.6563 31.7084 50.6271 29.6959 49.2563 28.1792ZM37.5896 38.1688C37.5896 39.7146 37.5896 39.948 35.7958 39.948C34.0021 39.948 34.0021 39.6709 34.0021 38.1834V36.3459H37.5896V38.1688ZM31.4938 26.123V26.0646C31.4938 23.5855 31.4938 22.6667 34.8917 22.6667H37.1083C40.5063 22.6667 40.5063 23.6 40.5063 26.0646V26.1375H31.4938V26.123Z" fill="#031AAF"/>
<path d="M49.313 37.8508C49.6659 37.6811 50.0711 37.9618 50.0357 38.3517L49.4751 44.5271C49.1689 47.4438 47.973 50.4187 41.5563 50.4187H30.4438C24.0272 50.4187 22.8313 47.4438 22.5251 44.5417L21.9919 38.6763C21.9568 38.2909 22.3526 38.0104 22.7046 38.1714C24.2704 38.8874 27.7856 40.4445 29.8144 40.9507C29.9792 40.9918 30.1139 41.1095 30.182 41.2651C31.0428 43.2315 32.9834 44.2792 35.8105 44.2792C38.6096 44.2792 40.576 43.1912 41.4389 41.2216C41.5071 41.0659 41.6424 40.948 41.8073 40.9068C43.9578 40.369 47.6823 38.6354 49.313 37.8508Z" fill="#031AAF"/>
</svg>
