<svg width="71" height="70" viewBox="0 0 71 70" fill="none" xmlns="http://www.w3.org/2000/svg">
<rect x="0.5" width="70" height="70" rx="35" fill="#FEF9E6"/>
<path d="M40.8334 20.8729H29.1667C23.3334 20.8729 20.4167 23.7896 20.4167 29.6229V36.9146C20.4167 44.2063 23.3334 45.6646 29.1667 45.6646H29.8959C30.3042 45.6646 30.8292 45.9271 31.0626 46.2479L33.2501 49.1646C34.2126 50.4479 35.7876 50.4479 36.7501 49.1646L38.9376 46.2479C39.2147 45.8833 39.6522 45.6646 40.1042 45.6646H40.8334C46.6667 45.6646 49.5834 42.7479 49.5834 36.9146V29.6229C49.5834 23.7896 46.6667 20.8729 40.8334 20.8729ZM29.9397 35.7479C30.3626 36.1708 30.3626 36.8708 29.9397 37.2938C29.7209 37.5125 29.4438 37.6146 29.1667 37.6146C28.8897 37.6146 28.6126 37.5125 28.3938 37.2938L25.4772 34.3771C25.0542 33.9542 25.0542 33.2542 25.4772 32.8313L28.3938 29.9146C28.8167 29.4917 29.5167 29.4917 29.9397 29.9146C30.3626 30.3375 30.3626 31.0375 29.9397 31.4604L27.7959 33.6042L29.9397 35.7479ZM37.4647 30.6292L34.548 37.4396C34.373 37.8479 33.9647 38.0958 33.5417 38.0958C33.3959 38.0958 33.2501 38.0667 33.1042 38.0083C32.5501 37.775 32.2876 37.1333 32.5355 36.5646L35.4522 29.7542C35.6855 29.2 36.3272 28.9375 36.8959 29.1854C37.4501 29.4333 37.698 30.075 37.4647 30.6292ZM44.523 34.3771L41.6063 37.2938C41.3876 37.5125 41.1105 37.6146 40.8334 37.6146C40.5563 37.6146 40.2792 37.5125 40.0605 37.2938C39.6376 36.8708 39.6376 36.1708 40.0605 35.7479L42.2042 33.6042L40.0605 31.4604C39.6376 31.0375 39.6376 30.3375 40.0605 29.9146C40.4834 29.4917 41.1834 29.4917 41.6063 29.9146L44.523 32.8313C44.9459 33.2542 44.9459 33.9542 44.523 34.3771Z" fill="#031AAF"/>
</svg>
