<svg width="55" height="55" viewBox="0 0 55 55" fill="none" xmlns="http://www.w3.org/2000/svg">
<rect width="55" height="55" rx="27.5" fill="white"/>
<path d="M33.5057 36.1705C34.7357 35.6952 35.7082 34.7228 36.1835 33.4927C36.4084 32.91 36.5659 32.2452 36.6087 31.2728C36.6188 31.045 36.6267 30.8537 36.634 30.662V24.1647C36.6289 24.0291 36.6233 23.8879 36.616 23.7293C36.5732 22.7569 36.4157 22.0887 36.1908 21.5094C35.9585 20.8946 35.6008 20.344 35.1328 19.8868C34.675 19.4216 34.121 19.0605 33.513 18.8322C32.9303 18.6072 32.2655 18.4497 31.2931 18.407C30.3133 18.3603 30.0023 18.3496 27.518 18.3496C25.0337 18.3496 24.7221 18.3603 23.7463 18.403C22.7738 18.4458 22.1056 18.6033 21.5263 18.8282C20.9116 19.0605 20.3609 19.4182 19.9031 19.8868C19.4385 20.3446 19.0775 20.8986 18.8485 21.506C18.6236 22.0887 18.4661 22.7535 18.4233 23.726C18.3767 24.7057 18.366 25.0168 18.366 27.5016C18.366 29.9865 18.3767 30.2975 18.4194 31.2733C18.4621 32.2458 18.6196 32.9145 18.8452 33.4933C19.0775 34.108 19.4385 34.6586 19.9031 35.1165C20.3609 35.581 20.9149 35.9427 21.5229 36.171C22.1056 36.396 22.7704 36.5535 23.7429 36.5962C24.7187 36.6395 25.0297 36.6502 27.5146 36.6502C29.9994 36.6502 30.3099 36.6395 31.2863 36.5962C32.2588 36.5535 32.9264 36.3954 33.5057 36.1705ZM27.5213 35.0051C25.0792 35.0051 24.7862 34.9944 23.8244 34.9517C22.9307 34.9123 22.4481 34.7621 22.1264 34.6373C21.7299 34.4905 21.3688 34.2582 21.0752 33.9545C20.7715 33.6575 20.5387 33.3003 20.3924 32.9033C20.2676 32.5816 20.1174 32.095 20.078 31.2053C20.0353 30.2401 20.0246 29.9505 20.0246 27.5084C20.0246 25.0663 20.0353 24.7732 20.078 23.812C20.1174 22.9183 20.2676 22.4357 20.3924 22.114C20.5392 21.7169 20.7715 21.3558 21.0792 21.0628C21.3756 20.7591 21.7333 20.5268 22.1298 20.38C22.4515 20.2552 22.938 20.105 23.8278 20.0656C24.793 20.0229 25.0826 20.0122 27.5242 20.0122C29.9657 20.0122 30.2593 20.0229 31.2211 20.0656C32.1148 20.105 32.5973 20.2552 32.9191 20.38C33.3156 20.5268 33.6767 20.7591 33.9697 21.0628C34.2734 21.3598 34.5063 21.7169 34.6525 22.114C34.7774 22.4357 34.9275 22.9217 34.9669 23.812C35.0096 24.7772 35.0203 25.0668 35.0203 27.5084C35.0203 29.9499 35.0096 30.2362 34.9669 31.2013C34.9275 32.095 34.7774 32.5776 34.6525 32.8993C34.3448 33.6969 33.7121 34.3296 32.9151 34.6367C32.5934 34.7616 32.1075 34.9117 31.2171 34.9511C30.252 34.9939 29.9629 35.0051 27.5213 35.0051Z" fill="#0D0D0D"/>
<path d="M27.5182 22.7997C24.9225 22.7997 22.8167 24.9054 22.8167 27.5011C22.8167 30.0967 24.9225 32.2025 27.5182 32.2025C30.1138 32.2025 32.219 30.0967 32.219 27.5011C32.219 24.9054 30.1132 22.7997 27.5182 22.7997ZM27.5182 30.5501C25.8342 30.5501 24.4686 29.1845 24.4686 27.5005C24.4686 25.8166 25.8342 24.451 27.5182 24.451C29.2021 24.451 30.5677 25.8166 30.5677 27.5005C30.5677 29.1845 29.2021 30.5501 27.5182 30.5501Z" fill="#0D0D0D"/>
<path d="M33.5013 22.6138C33.5013 22.0075 33.0097 21.5165 32.4034 21.5165C31.7971 21.5165 31.3061 22.008 31.3061 22.6138C31.3061 23.2195 31.7977 23.7111 32.4034 23.7111C33.0092 23.7111 33.5013 23.2201 33.5013 22.6138Z" fill="#0D0D0D"/>
</svg>
