<svg width="55" height="55" viewBox="0 0 55 55" fill="none" xmlns="http://www.w3.org/2000/svg">
<rect width="55" height="55" rx="27.5" fill="white"/>
<path d="M23.4321 34.6276V25.009H20.2378V34.6276H23.4321ZM21.8356 23.696C22.9493 23.696 23.6426 22.9574 23.6426 22.0344C23.6218 21.0903 22.9493 20.3723 21.8568 20.3723C20.7636 20.3723 20.0496 21.0903 20.0496 22.0343C20.0496 22.9573 20.7426 23.6959 21.8147 23.6959L21.8356 23.696ZM25.2001 34.6276H28.3941V29.2567C28.3941 28.9696 28.4149 28.6818 28.4993 28.4767C28.7301 27.9021 29.2557 27.3073 30.1383 27.3073C31.2938 27.3073 31.7563 28.1893 31.7563 29.4825V34.6276H34.9502V29.1126C34.9502 26.1583 33.3746 24.7835 31.2731 24.7835C29.5502 24.7835 28.7935 25.7474 28.3731 26.4038H28.3943V25.0093H25.2003C25.242 25.9117 25.2001 34.6276 25.2001 34.6276Z" fill="#0D0D0D"/>
</svg>
