<svg width="231" height="48" viewBox="0 0 231 48" fill="none" xmlns="http://www.w3.org/2000/svg">
<g clip-path="url(#clip0_92_2470)">
<path fill-rule="evenodd" clip-rule="evenodd" d="M125.873 0.0523104C125.759 -0.0507552 125.536 0.0048206 125.32 0.163414C124.082 1.07777 126.491 3.67446 127.894 5.1879L127.895 5.18796C128.254 5.57517 128.547 5.89147 128.697 6.09053C128.728 6.13764 128.794 6.12099 128.871 6.06633C128.943 6.01681 128.988 5.95282 128.995 5.89224C129.011 5.82136 129.01 5.75342 128.989 5.70608C128.439 3.67389 127.55 1.45407 125.873 0.0523104ZM134.169 1.28704C134.348 1.38814 134.448 1.48457 134.497 1.59232C134.571 1.73366 134.532 1.83145 134.409 1.88135C133.493 2.31844 132.327 3.94651 131.611 4.94592L131.611 4.94597L131.611 4.946C131.459 5.15886 131.327 5.3432 131.222 5.48143C131.077 5.66254 130.744 5.5573 130.693 5.25948C130.704 4.92274 132.014 2.44558 132.746 1.77088C132.767 1.7516 132.789 1.73096 132.812 1.70938C133.104 1.43615 133.556 1.0123 134.169 1.28704ZM148.787 6.0681C148.802 6.02612 148.802 5.95616 148.802 5.9002C148.703 5.89276 148.604 5.88138 148.507 5.87024C148.422 5.86042 148.338 5.85079 148.258 5.84423C148.186 5.84423 148.115 5.83024 148.058 5.78826C147.957 5.74628 147.914 5.69032 147.9 5.59237C147.9 5.49443 147.957 5.42447 148.058 5.3825C148.1 5.35135 148.158 5.34331 148.215 5.33552C148.234 5.33281 148.254 5.33013 148.272 5.32652L148.272 5.32649C148.401 5.31252 148.53 5.29854 148.659 5.29854C149.016 5.29854 149.374 5.29854 149.732 5.28455C149.832 5.28455 149.946 5.29854 150.032 5.34052C150.261 5.45246 150.261 5.69032 150.047 5.80225C149.975 5.84423 149.889 5.85822 149.789 5.87221C149.672 5.87221 149.543 5.88376 149.403 5.89636L149.36 5.9002V6.01213C149.374 6.55782 149.403 7.11749 149.546 7.64919C149.574 7.77511 149.574 7.90105 149.517 8.02697C149.403 8.27883 149.117 8.3208 148.931 8.11093C148.816 7.99911 148.787 7.85937 148.759 7.7196L148.759 7.71915C148.716 7.15947 148.716 6.61379 148.787 6.0681ZM152.751 6.57181C152.751 6.57181 152.737 6.55782 152.737 6.54383C152.723 6.55776 152.712 6.5717 152.701 6.58564C152.691 6.59969 152.68 6.61373 152.665 6.62777C152.601 6.72591 152.529 6.82405 152.458 6.92219C152.386 7.01994 152.315 7.11769 152.25 7.21543L152.179 7.28539C152.05 7.41133 151.921 7.42531 151.764 7.31339C151.607 7.17347 151.478 7.00556 151.349 6.83765C151.32 6.79568 151.292 6.75371 151.263 6.69773C151.233 6.80492 151.217 6.89176 151.201 6.98186C151.193 7.02114 151.186 7.06103 151.177 7.10351L151.176 7.10987C151.133 7.34561 151.091 7.58148 151.034 7.83109C151.02 7.90105 151.005 7.97101 150.963 8.05495C150.92 8.16689 150.819 8.20887 150.676 8.19487C150.562 8.18089 150.476 8.11092 150.447 7.99899C150.419 7.94301 150.404 7.87305 150.419 7.81709C150.419 7.56523 150.433 7.31339 150.462 7.06153C150.49 6.83682 150.523 6.61212 150.555 6.38741C150.587 6.16438 150.619 5.94134 150.648 5.7183C150.652 5.70103 150.655 5.68508 150.658 5.66965C150.665 5.63509 150.671 5.60308 150.691 5.56439C150.762 5.43846 150.877 5.35451 151.02 5.34052C151.177 5.34052 151.277 5.41048 151.363 5.5364C151.378 5.56439 151.392 5.59237 151.421 5.62036C151.532 5.82148 151.638 6.02762 151.745 6.23577C151.817 6.37517 151.89 6.51547 151.964 6.65576C151.964 6.65576 151.979 6.66975 151.993 6.69773C152.021 6.65576 152.036 6.61379 152.05 6.55782C152.131 6.40939 152.198 6.25396 152.265 6.09648L152.265 6.09625L152.266 6.0955C152.293 6.03063 152.321 5.96542 152.351 5.9002C152.408 5.77427 152.479 5.66233 152.565 5.5504C152.637 5.42447 152.766 5.34052 152.937 5.3685C153.109 5.38249 153.209 5.48044 153.252 5.62036C153.324 5.84423 153.395 6.08209 153.453 6.33395C153.496 6.54156 153.529 6.75283 153.562 6.96589L153.562 6.96618L153.562 6.96645L153.562 6.96672C153.594 7.16981 153.625 7.37452 153.667 7.57923C153.696 7.71915 153.682 7.84507 153.624 7.97101C153.496 8.22285 153.209 8.25084 153.023 8.01297C152.937 7.91503 152.923 7.80309 152.909 7.67717C152.871 7.36026 152.823 7.04335 152.773 6.71718L152.751 6.57181ZM119.691 6.79179C119.645 6.63256 119.664 6.44098 119.764 6.17507C120.169 5.34212 121.045 5.39972 121.609 5.43687C121.654 5.43981 121.697 5.44262 121.737 5.44485C123.143 5.52718 126.827 7.03719 127.148 7.38988C127.367 7.75407 127.105 8.16026 126.784 8.09276C126.544 8.03636 126.233 7.95437 125.875 7.85968L125.874 7.85956L125.874 7.85942L125.874 7.85941L125.874 7.8594C124.186 7.41426 121.438 6.68909 120.052 7.02413C119.874 7.0792 119.742 7.00831 119.691 6.79179ZM89.8208 24.4665C90.2226 24.1741 90.6594 23.9306 91.1216 23.7416C91.6052 23.6065 92.1206 23.6288 92.5901 23.8055C93.0594 23.9823 93.4572 24.3036 93.7232 24.7209C93.9611 25.1372 94.0542 25.6179 93.9885 26.0905C93.9228 26.5629 93.7019 27.0018 93.3589 27.341C93.0931 27.6159 92.7912 27.8553 92.4614 28.0532C91.6734 28.551 90.8817 29.0341 90.0882 29.5183L90.0881 29.5183L90.088 29.5184C89.4014 29.9373 88.7135 30.357 88.0257 30.7877C87.7222 31.0201 87.4003 31.2285 87.063 31.4109C86.55 31.6611 85.9637 31.7281 85.4055 31.6003C84.8473 31.4727 84.3523 31.1582 84.0061 30.7114C83.7474 30.3951 83.5289 30.0492 83.3557 29.6812C82.9331 28.8126 82.5057 27.9451 82.0779 27.0767L82.0778 27.0766C81.0836 25.0586 80.0869 23.0357 79.1411 20.9816C78.5327 19.7424 78.0354 18.3219 77.5531 16.9439L77.5151 16.8354C77.3012 16.4252 77.2595 15.9497 77.3987 15.5098C77.5379 15.07 77.8472 14.7006 78.2606 14.4802C78.6741 14.2599 79.1592 14.206 79.6127 14.3299C80.0662 14.4538 80.4524 14.7459 80.6891 15.1438C81.4167 16.0892 82.0607 17.0934 82.6143 18.1455C83.3815 19.5346 84.1293 20.9236 84.8704 22.3003L84.8705 22.3006L84.8707 22.3009C85.4866 23.445 86.0979 24.5805 86.7118 25.7002C86.7906 25.8366 86.8775 25.9682 86.972 26.0945C87.9902 25.6759 88.9479 25.1286 89.8208 24.4665ZM93.0423 21.595C95.748 26.3262 101.133 27.2547 104.346 23.5791C107.026 20.6029 107.351 15.4138 105.062 11.3438C104.434 10.1003 103.421 9.08268 102.166 8.43623C100.912 7.78978 99.4802 7.54764 98.0765 7.74441C96.9315 7.96327 95.862 8.46209 94.9676 9.19434C90.7789 12.6919 91.1171 18.2372 93.0423 21.595ZM101.107 12.5902C102.019 13.1527 102.704 14.0066 103.046 15.0067L103.007 15.0195C103.415 16.2014 103.436 17.4783 103.068 18.6727C102.699 19.8671 101.96 20.9196 100.951 21.684C100.606 21.9132 100.215 22.0659 99.8029 22.1316C99.3913 22.1971 98.9701 22.174 98.5687 22.0637C98.1672 21.9535 97.7952 21.7588 97.4787 21.4933C97.1623 21.2278 96.9091 20.8979 96.7366 20.5266C95.3838 18.25 95.7741 14.4217 97.6342 12.8064C98.0996 12.3856 98.6989 12.1344 99.3315 12.095C99.9641 12.0556 100.591 12.2305 101.107 12.5902ZM117.458 16.6094C117.13 16.6785 116.79 16.6827 116.459 16.6215C116.128 16.5603 115.814 16.4351 115.533 16.2533C115.288 16.116 115.077 15.9274 114.915 15.7008C114.753 15.4743 114.645 15.2155 114.597 14.943C114.55 14.6706 114.565 14.3913 114.641 14.1252C114.718 13.8592 114.854 13.613 115.039 13.4043C115.362 12.9849 115.82 12.6847 116.34 12.5522C117.696 12.1673 119.092 11.9326 120.502 11.8527C120.812 11.8174 121.126 11.8431 121.426 11.928C121.725 12.0131 122.004 12.1557 122.247 12.3477C122.489 12.5396 122.69 12.777 122.837 13.0458C122.984 13.3146 123.075 13.6095 123.104 13.9131C123.51 15.4043 123.555 16.9679 123.234 18.4791C122.063 23.363 118.031 25.0418 113.504 23.4774C112.233 23.0591 111.119 22.2798 110.304 21.239C109.217 19.9855 108.446 18.5 108.054 16.9019C107.736 15.4788 107.77 14.0022 108.155 12.595C108.54 11.1879 109.263 9.89105 110.265 8.8129C111.216 7.64108 112.449 6.71886 113.855 6.12928C114.744 5.65053 115.783 5.51441 116.769 5.74772C116.993 5.80824 117.196 5.92617 117.357 6.08927C117.518 6.25239 117.632 6.45472 117.687 6.67531C117.741 6.89589 117.734 7.1267 117.667 7.34379C117.599 7.56087 117.473 7.75632 117.302 7.90988C116.978 8.19739 116.625 8.45299 116.249 8.67299C115.092 9.39307 114.086 10.3209 113.283 11.4075C112.756 12.1106 112.394 12.9179 112.221 13.7727C112.048 14.6274 112.068 15.5088 112.281 16.3551C112.576 17.5088 113.231 18.5444 114.154 19.3184C117.016 21.8622 120.736 19.4074 120.086 15.9353C119.6 16.0524 119.145 16.1729 118.703 16.2899C118.281 16.4015 117.871 16.51 117.458 16.6094ZM124.847 18.4408C125.901 23.7825 130.714 26.3263 134.942 23.7825C138.441 21.7603 140.392 16.9145 139.533 12.374C139.331 11.0036 138.693 9.73014 137.71 8.73298C136.728 7.73581 135.45 7.06531 134.057 6.81598C132.898 6.67602 131.721 6.82476 130.636 7.24842C125.537 9.28339 124.08 14.6252 124.847 18.4408ZM135.332 12.3358C136.028 13.144 136.41 14.1664 136.412 15.2229C136.418 16.4762 136.024 17.7002 135.285 18.724C134.546 19.7478 133.498 20.5203 132.288 20.9336C131.887 21.0452 131.466 21.0699 131.054 21.0059C130.643 20.9419 130.25 20.7907 129.905 20.563C129.559 20.3353 129.268 20.0365 129.053 19.6875C128.838 19.3385 128.703 18.9477 128.659 18.5426C128.073 15.9606 129.686 12.4503 131.976 11.4837C132.55 11.224 133.198 11.167 133.81 11.3224C134.422 11.4778 134.96 11.836 135.332 12.3358ZM143.809 24.8511C143.745 25.3166 143.495 25.7382 143.113 26.0233C142.731 26.3082 142.249 26.4333 141.773 26.3709C141.297 26.3085 140.866 26.0637 140.574 25.6904C140.283 25.3172 140.155 24.8459 140.219 24.3804C140.282 23.915 140.533 23.4933 140.914 23.2083C141.296 22.9232 141.778 22.7982 142.254 22.8606C142.73 22.923 143.162 23.1677 143.453 23.541C143.745 23.9143 143.873 24.3856 143.809 24.8511ZM142.677 7.69365C142.924 7.32422 143.287 7.04288 143.712 6.8916C144.136 6.74033 144.599 6.72722 145.032 6.85423C145.471 6.96181 145.86 7.21382 146.132 7.56807C146.404 7.92233 146.544 8.35731 146.527 8.80017C146.47 9.51054 146.361 10.2161 146.202 10.9114C146.105 11.4443 146.009 11.9772 145.912 12.5097L145.912 12.5113L145.911 12.5141L145.91 12.5181L145.91 12.5234L145.908 12.53L145.908 12.5315C145.58 14.3433 145.252 16.1516 144.901 17.9448C144.693 18.8733 144.42 19.7636 144.121 20.7047C144.017 20.999 143.843 21.2648 143.614 21.4806C143.471 21.6429 143.289 21.7674 143.084 21.8426C142.879 21.9178 142.658 21.9413 142.442 21.9109C142.225 21.8804 142.02 21.7971 141.845 21.6686C141.67 21.5399 141.531 21.3703 141.441 21.1754C141.287 20.8256 141.203 20.4498 141.194 20.0688C141.194 18.4917 141.194 16.9019 141.298 15.312C141.475 13.0432 141.823 10.7901 142.339 8.57123C142.4 8.27396 142.514 7.98968 142.677 7.73181V7.69365ZM84.2043 36.1401C84.1292 35.7804 84.1713 35.4067 84.3249 35.0715C84.4806 34.7317 84.7426 34.4493 85.0732 34.2647C85.4227 34.0663 85.8329 33.9958 86.2307 34.0657C86.6201 34.1343 86.9728 34.333 87.2284 34.6277C87.6223 34.9578 87.9544 35.3525 88.21 35.794L88.2166 35.8059C89.0897 37.5005 89.9234 39.1944 90.7435 40.9002L90.7458 40.905C91.2443 41.9952 91.6767 43.1099 92.0562 44.223C92.2953 44.8933 92.3448 45.6143 92.1998 46.3097C92.1739 46.6666 92.0409 47.0083 91.8173 47.2918C91.5892 47.581 91.2774 47.7964 90.9224 47.9099C90.5674 48.0234 90.1858 48.0298 89.827 47.9284C89.4751 47.8289 89.1612 47.6299 88.9246 47.3568C88.3674 46.86 87.947 46.2332 87.7027 45.5355C87.6345 45.3392 87.5679 45.1434 87.5016 44.9482L87.5008 44.946C87.3368 44.4637 87.174 43.9846 86.9906 43.5095C86.3416 41.8344 85.8551 40.677 85.4674 39.7713C85.3951 39.6023 85.326 39.4417 85.2599 39.2879C84.9724 38.6194 84.7392 38.077 84.5308 37.5285C84.3639 37.0806 84.2542 36.6142 84.2043 36.1401ZM96.8514 30.8712C95.5654 30.5455 94.2224 30.4981 92.9159 30.7322C91.904 30.8296 90.9088 31.0578 90.2177 31.5099C89.8662 31.74 89.582 32.0354 89.4239 32.4109C89.265 32.7884 89.2447 33.2202 89.3749 33.7013C89.6124 34.5814 89.9208 35.437 90.2281 36.29L90.2293 36.2934L90.2792 36.4317L90.2804 36.4348C91.207 38.916 92.1425 41.3887 93.0864 43.853C93.1965 44.2413 93.3522 44.616 93.5503 44.9693L93.554 44.9758C93.8157 45.4148 94.1514 45.8074 94.5468 46.1372C94.7446 46.3185 94.9892 46.444 95.2544 46.5001C95.5222 46.5566 95.8007 46.5402 96.0596 46.4525C96.3186 46.3649 96.5479 46.2094 96.7227 46.003C96.8946 45.8 97.0072 45.5554 97.0485 45.2952C97.2191 44.588 97.1645 43.8468 96.8917 43.1708C96.807 42.9444 96.7405 42.7129 96.6704 42.4694L96.6695 42.4662L96.6636 42.4455C96.642 42.3705 96.6202 42.2944 96.5972 42.217C98.758 41.3912 101.057 40.2808 101.866 37.6975C102.182 36.8048 102.209 35.8382 101.941 34.9301C101.673 34.021 101.124 33.2153 100.369 32.6238C99.3412 31.7958 98.1406 31.1976 96.8514 30.8712ZM93.2868 34.0397C93.3294 34.0277 93.3722 34.0166 93.4152 34.0062C94.822 33.79 96.2612 34.0781 97.468 34.8173C97.9998 35.1789 98.2176 35.5807 98.2551 35.9673C98.2937 36.3654 98.1456 36.7968 97.8482 37.2114C97.2863 37.9947 96.2609 38.6216 95.3346 38.7385C94.6593 37.218 93.9736 35.6359 93.2868 34.0397ZM110.337 27.7632C108.853 27.277 106.956 27.3965 105.425 28.088C103.885 28.7833 102.671 30.0823 102.668 31.9677C102.637 32.7414 102.863 33.504 103.313 34.1418C103.76 34.777 104.405 35.2542 105.152 35.5027C105.494 35.6547 105.85 35.7681 106.215 35.8843L106.215 35.8843L106.216 35.8844L106.216 35.8847L106.233 35.8899C106.361 35.9308 106.491 35.9722 106.621 36.0157C106.819 36.0817 107.021 36.1416 107.217 36.1998L107.246 36.2086L107.247 36.2089L107.249 36.2095C107.312 36.228 107.373 36.2463 107.434 36.2647C107.699 36.3447 107.954 36.427 108.2 36.529C109.139 36.9389 109.567 37.4291 109.709 37.8667C109.851 38.3011 109.732 38.7486 109.435 39.1253C109.136 39.5043 108.672 39.7901 108.178 39.8819C107.691 39.9725 107.184 39.8747 106.764 39.4995L106.76 39.4958C106.522 39.2923 106.258 39.1211 105.974 38.9869C105.69 38.8335 105.366 38.7647 105.042 38.789C104.717 38.8135 104.406 38.9306 104.149 39.1259C103.905 39.2982 103.716 39.5346 103.604 39.8077C103.492 40.0825 103.462 40.383 103.519 40.6737C103.58 40.9958 103.719 41.2994 103.925 41.5579L103.942 41.5758C104.594 42.2617 105.419 42.7687 106.334 43.0465C107.246 43.3235 108.217 43.3629 109.149 43.1607C111.713 42.7323 113.417 40.9162 113.769 38.9206C114.123 36.9026 113.087 34.7571 110.302 33.7212L110.3 33.7203C109.697 33.5016 109.073 33.3438 108.473 33.1919L108.471 33.1914L108.453 33.1867C108.242 33.1333 108.034 33.0807 107.831 33.0262C107.071 32.8191 106.696 32.5286 106.543 32.2698C106.4 32.028 106.421 31.7623 106.593 31.499C106.953 30.9469 107.938 30.4976 108.982 30.7688L108.99 30.7706C109.125 30.8014 109.255 30.8486 109.378 30.9114L109.395 30.9202L109.413 30.9266C109.653 31.0114 109.91 31.0385 110.163 31.0055C110.415 30.9727 110.656 30.8807 110.864 30.7377C111.073 30.5946 111.243 30.4045 111.361 30.1835C111.476 29.9664 111.538 29.7258 111.54 29.4812C111.574 29.1044 111.473 28.7275 111.255 28.4147C111.036 28.1 110.711 27.8697 110.337 27.7632ZM124.84 27.8871C124.543 27.7453 124.215 27.678 123.885 27.6912C123.554 27.7045 123.233 27.7979 122.949 27.9632C122.667 28.1272 122.43 28.357 122.261 28.632C122.106 28.8636 121.998 29.1226 121.945 29.3945C121.891 29.6663 121.892 29.9456 121.948 30.2167C122.004 30.5651 122.065 30.9039 122.126 31.2381C122.226 31.7911 122.323 32.3316 122.388 32.8827L122.39 32.8967C122.537 33.761 122.613 34.6352 122.62 35.5112L122.621 35.5236C122.671 36.4696 122.341 37.3972 121.702 38.1096L121.692 38.1223C121.485 38.3827 121.207 38.5814 120.89 38.6963C120.573 38.8112 120.23 38.8376 119.898 38.7725C119.567 38.7075 119.261 38.5537 119.014 38.3282C118.767 38.1027 118.589 37.8136 118.5 37.495C118.31 36.8233 118.2 36.1324 118.172 35.4362L118.497 30.3893C118.501 30.3235 118.507 30.2558 118.512 30.1875L118.513 30.1806C118.525 30.0296 118.537 29.876 118.543 29.7325C118.55 29.5183 118.544 29.2979 118.493 29.0893C118.44 28.8761 118.341 28.6733 118.165 28.5007C117.99 28.3297 117.754 28.2036 117.458 28.1177C116.922 27.966 116.468 27.9708 116.091 28.1276C115.713 28.2843 115.454 28.5754 115.27 28.9116C115.089 29.245 114.972 29.6397 114.883 30.035C114.818 30.3284 114.765 30.6363 114.715 30.9295C114.698 31.0305 114.681 31.1296 114.664 31.226L114.663 31.2288C114.395 32.8364 114.316 34.4686 114.425 36.0938C114.446 36.9721 114.633 37.8391 114.978 38.6504C115.367 39.6972 116.071 40.6042 116.998 41.2516C117.927 41.9004 119.036 42.2579 120.177 42.2768C121.318 42.2956 122.439 41.975 123.389 41.3575C124.339 40.7408 125.074 39.8569 125.499 38.8228C126.093 37.5056 126.372 36.073 126.315 34.6343C126.28 33.5851 126.222 32.5279 126.164 31.476V31.476L126.163 31.4725C126.135 30.956 126.106 30.4405 126.081 29.9282C126.068 29.4145 125.895 28.9169 125.584 28.5023C125.392 28.2401 125.136 28.0287 124.84 27.8871ZM135.32 35.838C135.33 35.8254 135.34 35.813 135.35 35.8007C135.628 35.4561 135.908 35.1065 136.188 34.7559L136.235 34.697C136.722 34.0877 137.213 33.4745 137.706 32.8731L137.709 32.8695C138.161 32.337 138.649 31.8342 139.168 31.3644C139.459 31.0448 139.846 30.8243 140.274 30.7348C140.705 30.6447 141.154 30.6924 141.555 30.8706C141.941 31.0243 142.267 31.293 142.487 31.6386C142.707 31.983 142.81 32.386 142.782 32.7905C142.786 34.0706 142.725 35.3499 142.598 36.624L142.598 36.6276C142.467 37.7896 142.311 38.9743 142.156 40.1594L142.155 40.1652C142.02 41.195 141.885 42.2251 141.765 43.2414C141.686 43.9611 141.397 44.6432 140.932 45.2067C140.733 45.5051 140.447 45.7392 140.111 45.8791C139.771 46.0213 139.394 46.0599 139.031 45.9902C138.667 45.9204 138.334 45.7454 138.073 45.4878C137.815 45.2323 137.64 44.9075 137.572 44.5546C137.413 43.9275 137.413 43.2723 137.571 42.645C137.812 41.2298 138.039 39.8149 138.268 38.3881L138.434 37.3501L135.617 39.6701L135.254 39.9357C135.071 40.0719 134.859 40.168 134.634 40.2162C134.409 40.2645 134.175 40.2643 133.95 40.2156C133.725 40.1668 133.514 40.0708 133.33 39.934C133.149 39.7988 133 39.6271 132.893 39.4307C132.327 38.5032 131.914 37.4943 131.669 36.441C131.652 36.3884 131.636 36.336 131.62 36.2822C131.386 36.7184 131.181 37.119 130.97 37.5663C130.424 38.7227 129.876 39.884 129.302 41.0315C129.108 41.4165 128.87 41.78 128.592 42.1133C128.375 42.3839 128.073 42.5763 127.732 42.6604C127.39 42.7446 127.029 42.7153 126.706 42.5769C126.402 42.4481 126.146 42.2293 125.976 41.9511C125.808 41.6785 125.731 41.3623 125.753 41.0454C125.735 40.6914 125.789 40.3373 125.912 40.0039C125.981 39.7937 126.049 39.5829 126.118 39.3721C126.46 38.3156 126.803 37.2559 127.219 36.2502L127.221 36.2452C127.897 34.6965 128.593 33.1599 129.285 31.6335L129.288 31.6265L129.293 31.6159C129.571 31.0036 129.847 30.3929 130.122 29.7837C130.243 29.501 130.404 29.2363 130.601 28.9977C130.837 28.6868 131.163 28.451 131.536 28.3197C131.91 28.1882 132.315 28.1677 132.701 28.2607C133.088 28.3463 133.439 28.5433 133.71 28.8264C133.981 29.1102 134.158 29.4675 134.219 29.8514L134.223 29.8727V29.8941C134.223 30.08 134.228 30.1672 134.284 30.2561L134.314 30.3033L134.323 30.358C134.404 30.848 134.485 31.3395 134.565 31.8289C134.79 33.1928 135.013 34.5547 135.255 35.9171C135.277 35.8901 135.299 35.8637 135.32 35.838Z" fill="#626981"/>
</g>
<defs>
<clipPath id="clip0_92_2470">
<rect width="230.083" height="48" fill="white" transform="translate(0.458008)"/>
</clipPath>
</defs>
</svg>
