<svg width="231" height="48" viewBox="0 0 231 48" fill="none" xmlns="http://www.w3.org/2000/svg">
<path fill-rule="evenodd" clip-rule="evenodd" d="M75.6978 14.337C76.6176 15.4304 77.3752 16.6504 77.9478 17.9595C78.7817 19.8681 79.2107 21.929 79.2078 24.012C79.2048 28.05 77.6009 31.9222 74.7477 34.7797C71.8944 37.6372 68.0246 39.2468 63.9865 39.2557C62.0302 39.2546 60.0929 38.8725 58.2828 38.1307C56.9917 37.6177 55.7796 36.9246 54.6828 36.072C52.9733 34.7692 51.5591 33.1192 50.5333 31.2304C49.5075 29.3418 48.8933 27.2573 48.7311 25.114C48.569 22.9709 48.8625 20.8176 49.5925 18.7961C50.3225 16.7746 51.4723 14.9305 52.9662 13.3854C54.4602 11.8402 56.2645 10.6289 58.2603 9.83133C60.2561 9.0337 62.3982 8.66781 64.5456 8.75771C66.693 8.84761 68.7971 9.39126 70.7193 10.3529C72.6415 11.3145 74.3382 12.6723 75.6978 14.337ZM69.0603 12.9757C67.4676 12.2345 65.7321 11.8505 63.9753 11.8507L63.9865 11.8282C61.937 11.8267 59.9203 12.3437 58.1242 13.331C56.3282 14.3184 54.8111 15.7441 53.7141 17.4754C52.6172 19.2068 51.976 21.1874 51.8503 23.2331C51.7246 25.2788 52.1185 27.3232 52.9953 29.1757C53.5034 28.6419 53.8166 27.9522 53.884 27.2182C54.0832 25.8419 54.7222 24.5669 55.7056 23.5836C56.6889 22.6002 57.9639 21.9612 59.3403 21.762C60.1139 21.6918 60.8397 21.357 61.3951 20.8138C61.9505 20.2707 62.3016 19.5526 62.389 18.7807C62.5882 17.4044 63.2272 16.1294 64.2106 15.146C65.194 14.1627 66.4689 13.5237 67.8453 13.3245C68.2635 13.2607 68.6719 13.1435 69.0603 12.9757ZM54.8065 31.7657C54.7615 31.8057 54.7165 31.8457 54.6715 31.887C55.5435 32.9076 56.5773 33.7779 57.7315 34.4632C58.0333 33.9997 58.2222 33.4718 58.2828 32.922C58.489 31.5428 59.1346 30.2671 60.1236 29.2841C61.1127 28.3011 62.3924 27.6634 63.7728 27.4657C64.5475 27.3893 65.272 27.0474 65.8236 26.4979C66.3751 25.9484 66.7197 25.2252 66.799 24.4507C66.9948 23.0729 67.6326 21.7961 68.6166 20.812C69.6006 19.8281 70.8775 19.1902 72.2553 18.9945C73.0313 18.9211 73.7545 18.5694 74.2915 18.0045C74.346 17.9576 74.395 17.9047 74.4378 17.847C73.7417 16.6577 72.8433 15.5993 71.7828 14.7195C70.8514 15.5921 69.6721 16.1542 68.4078 16.3282C67.6314 16.3812 66.9004 16.7128 66.349 17.262C65.7677 17.8321 65.419 18.5979 65.3703 19.4107C65.171 20.787 64.532 22.062 63.5487 23.0454C62.5653 24.0287 61.2903 24.6677 59.914 24.867C59.14 24.9303 58.4158 25.2744 57.8778 25.8345C57.3186 26.379 56.9717 27.1048 56.899 27.882C56.7198 29.2645 56.0774 30.5454 55.0765 31.5157C54.9865 31.6057 54.8965 31.6857 54.8065 31.7657ZM60.6003 35.757C61.6976 36.0716 62.8337 36.2307 63.9753 36.2295V36.1732C65.8344 36.166 67.6672 35.733 69.333 34.9075C70.9989 34.082 72.4534 32.8857 73.5851 31.4109C74.7169 29.9359 75.4958 28.2212 75.862 26.3984C76.2282 24.5757 76.1721 22.6934 75.6978 20.8957C74.8437 21.4996 73.855 21.8858 72.8178 22.0207C72.045 22.0996 71.3231 22.4426 70.7739 22.9918C70.2246 23.541 69.8816 24.263 69.8028 25.0357C69.603 26.4136 68.9623 27.6899 67.9768 28.6734C66.9912 29.657 65.7136 30.295 64.3353 30.492C63.5625 30.5708 62.8406 30.9138 62.2914 31.4631C61.7421 32.0123 61.3991 32.7342 61.3203 33.507C61.2197 34.2946 60.9757 35.0572 60.6003 35.757ZM90.7615 17.3407H87.3865V30.987H90.7615V17.3407ZM97.3653 20.4457C94.1703 20.4457 92.1003 22.4595 92.1003 25.8345C92.1003 29.2657 94.1253 31.2345 97.3653 31.2345C100.605 31.2345 102.63 29.2095 102.63 25.8345C102.63 22.4595 100.56 20.4457 97.3653 20.4457ZM97.3653 22.887C98.5128 22.887 99.244 23.9782 99.244 25.8345V25.8457C99.244 27.7245 98.524 28.7595 97.3653 28.7595C96.2065 28.7595 95.4978 27.657 95.4978 25.8345C95.4978 24.012 96.2178 22.887 97.3653 22.887ZM107.142 31.6507H103.902V31.662C104.093 33.5295 105.949 34.8682 108.93 34.8682C112.137 34.8682 114.308 33.3382 114.308 30.8745V20.637H110.933V22.5157C110.679 21.9086 110.245 21.3935 109.69 21.0396C109.135 20.6858 108.485 20.51 107.828 20.5357C105.24 20.5357 103.688 22.572 103.688 25.8007C103.688 29.0295 105.319 30.9082 107.783 30.9082C108.42 30.9429 109.054 30.7856 109.601 30.4568C110.149 30.1278 110.585 29.6425 110.854 29.0632H110.922V30.9532C110.922 31.9657 110.247 32.6632 108.964 32.6632C108.592 32.7133 108.213 32.6417 107.885 32.4594C107.556 32.2769 107.296 31.9933 107.142 31.6507ZM108.987 23.1457C110.179 23.1457 110.933 24.1807 110.933 25.8232V25.8345C110.933 27.4995 110.19 28.4107 108.987 28.4107C107.783 28.4107 107.063 27.477 107.063 25.8232C107.063 24.1695 107.794 23.1457 108.987 23.1457ZM120.844 20.4345C117.649 20.4345 115.579 22.4482 115.579 25.8232V25.8345C115.579 29.2657 117.593 31.2232 120.844 31.2232C124.095 31.2232 126.12 29.1982 126.12 25.8232C126.12 22.4482 124.039 20.4345 120.844 20.4345ZM120.844 22.8757C121.992 22.8757 122.723 23.967 122.723 25.8232V25.8457C122.723 27.7245 122.037 28.7707 120.889 28.7707C119.742 28.7707 119.033 27.6795 119.033 25.8457C119.033 24.012 119.697 22.8757 120.844 22.8757ZM127.669 17.2199C127.486 17.508 127.394 17.8437 127.403 18.1845V18.207C127.401 18.4334 127.445 18.6579 127.534 18.8661C127.623 19.0745 127.754 19.2622 127.919 19.4175C128.084 19.5728 128.279 19.6923 128.492 19.7686C128.705 19.8449 128.932 19.8763 129.158 19.8607C129.499 19.854 129.83 19.7461 130.109 19.5509C130.389 19.3557 130.604 19.0819 130.727 18.7643C130.851 18.4466 130.878 18.0994 130.804 17.7667C130.73 17.4339 130.559 17.1306 130.312 16.8951C130.066 16.6597 129.755 16.5027 129.419 16.4442C129.083 16.3856 128.738 16.4281 128.426 16.5662C128.114 16.7043 127.851 16.9318 127.669 17.2199ZM130.778 20.6595H127.403V30.987H130.778V20.6595ZM138.968 31.122C141.533 31.122 143.029 29.1982 143.029 25.8232L143.074 25.8457C143.074 22.4707 141.533 20.5357 138.945 20.4907C138.283 20.4611 137.627 20.6364 137.067 20.9927C136.508 21.349 136.071 21.869 135.818 22.482H135.75V20.637H132.375V34.2945H135.75V29.2095H135.818C136.084 29.8125 136.528 30.3193 137.092 30.6614C137.655 31.0034 138.31 31.1642 138.968 31.122ZM137.719 23.1345C138.9 23.1345 139.654 24.1807 139.654 25.8232V25.8457C139.654 27.477 138.9 28.5007 137.719 28.5007C136.538 28.5007 135.762 27.4545 135.773 25.8232C135.784 24.192 136.538 23.1345 137.719 23.1345ZM153.402 23.877C153.323 21.7507 151.624 20.4232 148.823 20.4232V20.4457C146.033 20.4457 144.222 21.762 144.199 23.787C144.199 25.362 145.257 26.4307 147.27 26.847L149.217 27.2632C150.027 27.432 150.342 27.5445 150.342 28.0845C150.342 28.6245 149.892 28.9507 148.902 28.9507C147.912 28.9507 147.304 28.5007 147.203 27.7357H143.952C144.098 29.8395 145.977 31.212 148.845 31.212C151.714 31.212 153.66 29.8395 153.66 27.702C153.66 26.1382 152.783 25.3057 150.724 24.867L148.564 24.4282C147.81 24.2707 147.439 24.102 147.439 23.5732C147.439 23.0445 147.855 22.6845 148.789 22.6845C149.723 22.6845 150.33 23.1457 150.33 23.877H153.402ZM161.67 30.9645H164.922L164.967 20.637H161.592V26.4645C161.624 26.7077 161.603 26.955 161.532 27.1898C161.461 27.4244 161.34 27.6412 161.179 27.8256C161.017 28.0099 160.816 28.1575 160.594 28.2584C160.37 28.3593 160.127 28.4112 159.882 28.4107C158.835 28.4107 158.205 27.7582 158.205 26.532V20.637H154.83V27.3082C154.788 27.82 154.855 28.335 155.029 28.8184C155.202 29.3018 155.477 29.7425 155.836 30.1104C156.194 30.4784 156.627 30.765 157.106 30.9512C157.585 31.1374 158.098 31.2186 158.61 31.1895C159.28 31.2266 159.941 31.0337 160.486 30.6428C161.03 30.2519 161.424 29.6866 161.603 29.0407H161.67V30.9645ZM169.815 20.637H166.553L166.497 30.987H169.872V24.9007C169.846 24.6891 169.866 24.4746 169.929 24.2712C169.993 24.0677 170.099 23.88 170.241 23.7206C170.381 23.5612 170.556 23.4335 170.75 23.346C170.944 23.2586 171.155 23.2133 171.368 23.2132C172.29 23.2132 172.797 23.7757 172.797 24.8107V30.987H176.003V24.8782C175.976 24.6693 175.993 24.4569 176.055 24.2553C176.116 24.0538 176.221 23.868 176.361 23.7101C176.5 23.5523 176.672 23.4263 176.865 23.3406C177.057 23.2549 177.266 23.2114 177.477 23.2132C178.422 23.2132 178.928 23.7307 178.928 24.8557V30.987H182.303V23.9557C182.337 23.4977 182.272 23.0377 182.117 22.6058C181.961 22.174 181.716 21.7796 181.397 21.4486C181.079 21.1176 180.695 20.8571 180.269 20.6845C179.844 20.5117 179.387 20.4303 178.928 20.4457C178.225 20.4155 177.531 20.6202 176.957 21.0276C176.382 21.4349 175.959 22.0217 175.755 22.6957H175.688C175.58 22.0288 175.224 21.4272 174.693 21.0103C174.161 20.5933 173.493 20.3918 172.819 20.4457C172.158 20.4335 171.51 20.6411 170.979 21.036C170.448 21.4309 170.062 21.9909 169.883 22.6282H169.815V20.637Z" fill="#626981"/>
</svg>
