<svg width="104" height="45" viewBox="0 0 104 45" fill="none" xmlns="http://www.w3.org/2000/svg">
<path d="M33.727 1.58099L19.6439 28.9246H14.1436L0 1.58099H6.40693L14.8689 18.4995C15.2316 19.2541 15.5539 20.0484 15.836 20.8824C16.1181 21.6767 16.4001 22.471 16.6822 23.2653H17.1053C17.3874 22.471 17.6694 21.6767 17.9515 20.8824C18.2738 20.0484 18.5962 19.2739 18.9186 18.5591L27.3805 1.58099H33.727ZM19.8856 24.8737V42.6858H13.8414V24.8737H19.8856Z" fill="white"/>
<path d="M103.289 1.58099V26.3725C103.289 30.3095 102.809 33.4864 101.848 35.9032C100.926 38.281 99.408 40.0156 97.2945 41.1071C95.1811 42.1596 92.3568 42.6858 88.8216 42.6858C85.1327 42.6858 82.1931 42.1596 80.0028 41.1071C77.8126 40.0156 76.2179 38.281 75.2188 35.9032C74.2582 33.4864 73.7778 30.3095 73.7778 26.3725V1.58099H79.5417V26.3725C79.5417 29.1791 79.8107 31.4205 80.3487 33.0966C80.9251 34.7338 81.8665 35.9032 83.173 36.6049C84.5179 37.2675 86.3047 37.5989 88.5334 37.5989C90.7621 37.5989 92.5105 37.2675 93.7786 36.6049C95.085 35.9032 96.0265 34.7338 96.6029 33.0966C97.2177 31.4205 97.5251 29.1791 97.5251 26.3725V1.58099H103.289Z" fill="white"/>
<path d="M66.5115 16.7012C66.5115 16.7012 67.5521 6.62102 63 4.14969C63 4.14969 65.5377 9.51088 64.9475 14.8391L66.5115 16.7012Z" fill="white"/>
<path d="M60.7836 7.83343C60.8573 8.00581 60.9828 8.15521 61.1452 8.2641C61.3077 8.37298 61.5004 8.43684 61.7009 8.44817C62.0963 8.46327 62.4367 8.24372 62.0948 7.24612C61.4526 5.36895 60.342 3.84444 59.9734 3.73192C59.6849 3.64272 59.2434 3.5549 59.0814 4.40567C58.9372 5.21938 59.5274 5.00806 60.7836 7.83343Z" fill="white"/>
<path d="M57.6963 1.4147C57.8667 1.52581 58.005 1.67392 58.0988 1.84597C58.1927 2.01802 58.2392 2.20873 58.2344 2.40131C58.2166 2.79925 57.9624 3.13681 56.8786 2.53853C55.331 1.68639 53.886 0.683315 52.3755 0.343009C52.3357 0.334082 52.3007 0.312498 52.2764 0.282054C52.2522 0.25161 52.2404 0.214256 52.243 0.176561C52.2457 0.138866 52.2627 0.103245 52.291 0.0759637C52.3193 0.048682 52.3571 0.0314869 52.3978 0.0274027C53.4542 -0.064765 54.5192 0.0763389 55.5049 0.439063C55.5049 0.439063 56.8355 0.843862 57.6963 1.4147Z" fill="white"/>
<path d="M66.3451 25.7404C66.4387 25.6513 66.5031 25.5397 66.531 25.4183C66.5589 25.2969 66.5491 25.1707 66.5027 25.0543C66.3391 24.633 65.96 24.1349 65.1379 24.799C63.8861 25.8103 61.9044 27.6395 61.9044 27.6395C61.9044 27.6395 64.1062 41.4589 51.5811 44.1553C51.5811 44.1553 63.3123 46.6115 63.5219 28.4587L66.3451 25.7404Z" fill="white"/>
<path d="M38.5331 36.6033C38.5331 36.6033 37.3289 33.0891 42.2899 29.4335C42.2899 29.4335 42.8102 26.8332 39.5247 29.8658C36.2392 32.8983 38.0113 36.2671 38.5331 36.6033Z" fill="white"/>
<path d="M36.6952 20.2636C36.6952 20.2636 41.234 24.9826 37.165 28.4021C36.9152 29.1209 36.7575 29.8642 36.6952 30.6169C38.1751 29.465 39.3494 28.0155 40.1279 26.3795C41.4436 23.6351 40.0774 21.1652 37.7389 19.0122C37.3419 18.6458 35.656 18.8928 36.6952 20.2636Z" fill="white"/>
<path d="M36.707 23.2176C36.707 23.2176 38.5847 24.7585 36.707 25.7699V23.2176Z" fill="white"/>
<path d="M37.125 13.9726V15.8498C37.125 15.8498 41.9373 20.2326 42.3194 25.0435V26.7066C42.3161 26.8407 42.3555 26.9727 42.4326 27.0864C42.5098 27.2 42.6213 27.2903 42.7535 27.3461C43.0419 27.4627 43.418 27.4064 43.6975 26.6325C44.2193 25.1931 43.8016 20.2326 37.125 13.9726Z" fill="white"/>
<path d="M49.0724 24.9905C48.9129 24.8716 48.782 24.7233 48.6881 24.555C48.5942 24.3868 48.5392 24.2024 48.5268 24.0135C48.4138 22.559 47.7507 18.0115 43.8572 14.5C43.8572 14.5 40.1286 11.2067 40.1673 7.96698C40.1668 7.67598 40.2656 7.39222 40.4498 7.15601C40.762 6.76219 41.2986 6.41502 41.7149 7.85583C42.3408 10.0225 40.9314 9.97451 45.4182 13.9704C45.4182 13.9704 49.3578 17.7508 49.7443 22.8787C49.7443 22.9089 49.7443 22.9391 49.7548 22.9679C49.8157 23.3205 50.1591 25.7809 49.0724 24.9905Z" fill="white"/>
<path d="M55.4956 16.4835C55.6098 16.5751 55.7495 16.6353 55.8989 16.6572C56.0483 16.6792 56.2014 16.6621 56.3407 16.6077C56.4801 16.5534 56.6002 16.4641 56.6873 16.35C56.7744 16.2358 56.8251 16.1014 56.8336 15.962C56.9436 14.1686 57.0328 9.27941 54.9367 7.21562C52.3737 4.68802 46.372 2.91926 44.4007 5.73913C44.3531 5.80637 44.4423 5.66778 44.4007 5.73913C44.1346 6.1851 43.3972 7.54083 44.2714 9.76929C44.3044 9.84313 44.3531 9.91011 44.4147 9.96625C44.4763 10.0224 44.5495 10.0665 44.6299 10.0961C44.7103 10.1257 44.7963 10.14 44.8828 10.1383C44.9694 10.1366 45.0546 10.1189 45.1336 10.0863C45.4533 9.94904 45.6763 9.56346 45.2065 8.50137C45.1764 8.42042 45.1559 8.33668 45.1455 8.25163C45.0088 7.55592 45.2511 4.85681 50.001 6.21117C55.2964 7.72059 55.2726 10.0327 55.2206 15.9209C55.2191 16.0254 55.2415 16.129 55.2864 16.225C55.3312 16.321 55.3974 16.4072 55.4808 16.478L55.4956 16.4835Z" fill="white"/>
<path d="M46.5621 12.5325L49.6053 16.6491C49.6311 16.6837 49.6599 16.7163 49.6916 16.7465C49.9517 16.9949 51.1143 18.0501 50.8155 16.6999C50.8111 16.6774 50.8047 16.6554 50.7961 16.634C50.6653 16.2855 49.4849 13.2845 47.4036 12.0152C46.8119 11.6543 46.1949 12.0344 46.5621 12.5325Z" fill="white"/>
<path d="M41.3996 5.54805C41.5123 5.58868 41.6349 5.60006 41.7542 5.58095C41.8734 5.56184 41.9847 5.51298 42.076 5.43965C42.2158 5.32478 42.3451 5.19949 42.4625 5.06504C42.5607 4.95389 42.6484 4.85784 42.7257 4.7755C43.1405 4.33777 42.7257 3.64207 42.1057 3.76419C41.9442 3.79883 41.7923 3.86426 41.6597 3.9563C41.3185 4.16635 41.0762 4.48803 40.9818 4.85646C40.9521 4.99761 40.9775 5.14391 41.0534 5.26947C41.1293 5.39503 41.2509 5.49177 41.3966 5.54257L41.3996 5.54805Z" fill="white"/>
<path d="M42.0862 17.1013C42.0862 17.1013 37.4894 12.6073 37.5415 10.4241C37.5935 8.24095 38.5018 7.76068 38.5018 7.76068C38.5018 7.76068 38.0558 9.86701 39.315 11.8773C40.5742 13.8876 42.8102 15.8567 43.2279 16.385C43.6457 16.9133 42.6987 17.7242 42.0862 17.1013Z" fill="white"/>
<path d="M50.3697 12.9452C50.3697 12.9452 48.7507 11.3713 48.6585 11.0022C48.5663 10.633 48.7581 10.3161 49.158 10.2968C49.5579 10.2776 50.444 11.1833 50.6016 11.9654C50.7592 12.7476 50.3697 12.9452 50.3697 12.9452Z" fill="white"/>
<path d="M56.4087 38.5941C56.4784 38.6886 56.5701 38.7675 56.677 38.8251C56.784 38.8827 56.9035 38.9175 57.0269 38.9269C57.1503 38.9364 57.2745 38.9203 57.3903 38.8798C57.506 38.8393 57.6106 38.7754 57.6962 38.6929C57.9519 38.4514 58.2492 38.1111 58.2908 37.8064C58.3607 37.2576 57.8448 36.7155 57.3171 37.0531C56.7893 37.3907 56.3775 38.0644 56.3255 38.321C56.3159 38.4184 56.3456 38.5156 56.4087 38.5941Z" fill="white"/>
<path d="M66.544 28.0005L65.3993 29.2204C65.3993 29.2204 65.7115 36.2186 62.5122 40.7469C62.5122 40.7441 67.3245 39.1386 66.544 28.0005Z" fill="white"/>
<path d="M49.1771 28.7576C49.2959 28.844 49.4444 28.8882 49.5955 28.8822C49.7467 28.8761 49.8905 28.8202 50.0007 28.7247C50.071 28.6671 50.1282 28.5972 50.1688 28.5189C50.2094 28.4407 50.2326 28.3557 50.2371 28.2691C50.2698 27.7929 50.3085 26.7226 50.0275 26.5236L50.0141 26.5154C49.9089 26.4478 49.7861 26.4071 49.6583 26.3974C49.5305 26.3877 49.4022 26.4094 49.2864 26.4602C49.1706 26.5111 49.0715 26.5893 48.999 26.687C48.9266 26.7846 48.8834 26.8982 48.8738 27.0163C48.8493 27.4212 48.8493 27.8271 48.8738 28.232C48.8762 28.3354 48.9049 28.4369 48.9576 28.5282C49.0103 28.6195 49.0855 28.6981 49.1771 28.7576Z" fill="white"/>
<path d="M58.5878 35.9299C58.7638 35.9253 58.9344 35.8726 59.078 35.7786C59.2217 35.6846 59.332 35.5534 59.395 35.4016C59.6544 34.7917 59.7977 34.1451 59.8187 33.4902C59.8708 32.0933 60.2543 29.3489 59.7489 28.7876C59.7489 28.7876 58.9148 28.4981 58.7231 29.2528C58.5313 30.0075 58.5625 33.4257 58.2949 34.1927C58.2949 34.1927 57.8712 35.2356 58.1314 35.7022C58.1745 35.7775 58.2409 35.8394 58.3221 35.88C58.4034 35.9205 58.4958 35.9379 58.5878 35.9299Z" fill="white"/>
<path d="M41.7885 36.295C42.0144 38.0597 43.6542 45.508 55.0019 39.672C55.0808 39.6312 55.1678 39.6055 55.2578 39.5966C55.3477 39.5876 55.4387 39.5955 55.5252 39.6199C55.8805 39.7242 56.322 40.0055 55.5609 40.7506C54.4533 41.8373 42.2345 47.6363 40.5174 36.4693C40.4992 36.39 40.4988 36.308 40.5162 36.2286C40.5336 36.1491 40.5684 36.0737 40.6185 36.0072C40.6687 35.9406 40.733 35.8842 40.8077 35.8414C40.8823 35.7986 40.9657 35.7704 41.0526 35.7585C41.1395 35.7466 41.2281 35.7512 41.313 35.7721C41.3978 35.793 41.4772 35.8297 41.5461 35.88C41.6151 35.9302 41.6721 35.993 41.7138 36.0644C41.7555 36.1357 41.7809 36.2142 41.7885 36.295Z" fill="white"/>
<path d="M47.2549 7.86936C47.2549 8.10675 47.4511 8.38119 47.7306 8.63916C48.3565 9.21686 53.209 7.4824 52.3735 14.5136C52.3735 14.5136 51.8591 19.3684 53.9716 21.7341C54.0635 21.8368 54.1137 21.9659 54.1137 22.0991C54.1137 22.2323 54.0635 22.3613 53.9716 22.4641C53.2892 23.2312 51.9721 25.3841 52.5221 30.2102C52.5221 30.2102 53.3532 35.4822 48.1186 35.7401C48.0115 35.7441 47.9074 35.7741 47.8168 35.8269C47.7262 35.8798 47.6523 35.9537 47.6024 36.0413C47.5525 36.1289 47.5285 36.2271 47.5328 36.326C47.537 36.4248 47.5694 36.5209 47.6266 36.6046L47.6385 36.6197C47.6854 36.6802 47.7453 36.7312 47.8143 36.7696C47.8833 36.8081 47.96 36.8332 48.0399 36.8434C49.0077 36.9888 53.0945 37.3003 53.7308 32.4263C54.428 27.1392 52.7005 25.6517 55.9905 22.5629C56.0491 22.5081 56.095 22.4429 56.1255 22.3712C56.156 22.2995 56.1704 22.2229 56.1679 22.1459C56.1654 22.069 56.146 21.9933 56.1109 21.9234C56.0758 21.8536 56.0258 21.791 55.9637 21.7396C55.0242 20.9739 53.2342 18.9293 53.9389 14.8484C53.9389 14.8484 55.2383 6.5987 47.5106 7.42888C47.4712 7.43301 47.4338 7.44675 47.4021 7.46868C47.3471 7.52134 47.3054 7.58457 47.28 7.65383C47.2545 7.72309 47.246 7.79669 47.2549 7.86936Z" fill="white"/>
<path d="M46.1491 30.7276C44.4648 31.2174 42.9543 32.8819 42.9543 32.8819C42.324 33.944 41.8586 33.9714 41.5613 33.7656C41.4183 33.6601 41.3205 33.5112 41.2851 33.3454C41.2497 33.1796 41.2791 33.0076 41.3681 32.86C42.706 30.5272 43.7467 30.1361 44.5317 29.8837L44.6328 29.8493C44.9449 29.7248 45.2123 29.5209 45.4037 29.2614C45.5951 29.002 45.7025 28.6976 45.7136 28.3838C45.7909 26.7372 45.8474 21.7547 43.9801 18.7249C43.8905 18.5836 43.8572 18.4178 43.886 18.2561C43.9147 18.0945 44.0038 17.9473 44.1377 17.8398C44.3889 17.6477 44.7532 17.6052 45.2096 18.2076C46.1239 19.411 48.7315 30.1457 46.1491 30.7276Z" fill="white"/>
<path d="M59.3191 18.6498L63.2528 22.3273L59.3607 25.9883C59.2569 26.0817 59.1822 26.1991 59.1442 26.3282C59.1063 26.4573 59.1066 26.5934 59.1451 26.7224C59.2091 26.9228 59.3711 27.1012 59.7398 27.0833C59.8954 27.0759 60.043 27.0175 60.1561 26.9186L65.3594 22.3753L60.3716 17.8361C60.267 17.7391 60.1357 17.6704 59.9918 17.6373C59.848 17.6042 59.6971 17.6079 59.5554 17.6481C59.4501 17.6723 59.3539 17.7227 59.2774 17.7938C59.2009 17.865 59.1469 17.9541 59.1213 18.0515C59.0966 18.1585 59.1018 18.2696 59.1364 18.3742C59.171 18.4789 59.2338 18.5737 59.3191 18.6498Z" fill="white"/>
<path d="M44.537 2.18888C44.4678 2.30398 44.4375 2.43554 44.45 2.56665C44.4625 2.69776 44.5171 2.82243 44.6069 2.92465C44.6968 3.02688 44.8176 3.10198 44.954 3.14032C45.0904 3.17866 45.2362 3.17848 45.3725 3.13981C46.6361 2.7899 50.329 2.11203 54.3801 4.58611C54.3801 4.58611 57.566 6.54561 58.131 9.80048C58.1324 9.82424 58.1324 9.84807 58.131 9.87183L58.4833 15.1973C58.4906 15.3253 58.5387 15.4485 58.6216 15.5514C58.846 15.8258 59.3366 16.2622 59.8644 15.6886C59.9739 15.5693 60.0345 15.4182 60.0354 15.2618C60.0354 14.4495 60.0116 11.443 59.5641 9.78813C59.0423 7.86704 58.1547 5.21321 55.1041 3.43209C52.1026 1.67979 47.7139 0.672594 44.8462 1.92267C44.7227 1.97659 44.6193 2.063 44.5488 2.17104L44.537 2.18888Z" fill="white"/>
<path d="M57.3985 25.7822C57.3985 25.7822 57.5293 24.8216 61.2326 22.0498L57.7166 18.7167C57.5868 18.5899 57.413 18.5091 57.2253 18.4883C57.0377 18.4675 56.848 18.508 56.6894 18.6028C56.5829 18.6654 56.5023 18.7593 56.4605 18.8693C56.4187 18.9792 56.4182 19.099 56.4589 19.2093C56.6685 19.9791 59.1914 21.9537 59.1914 21.9537L57.0848 23.8556C57.0848 23.8556 56.0442 24.7461 55.9371 26.0223C55.8524 27.072 55.8018 29.1619 55.7884 29.8727C55.7884 30.0099 55.7884 30.1471 55.7884 30.2843C55.8197 31.2202 55.8271 35.732 53.1199 37.0246C53.1199 37.0246 47.5315 40.2452 45.7654 36.7584C45.7086 36.6469 45.6763 36.5261 45.6702 36.403C45.6435 35.8033 45.7684 33.9591 48.321 33.7958C48.321 33.7958 50.9969 33.7958 50.7695 31.0185C50.7577 30.8517 50.6873 30.693 50.569 30.5665C50.4507 30.4399 50.2909 30.3524 50.1139 30.3173C49.7987 30.2596 49.4523 30.3927 49.3349 31.1502C49.1 32.6679 48.8651 32.4263 47.6653 32.4991C47.6653 32.4991 45.422 32.6679 44.588 34.6658C43.7539 36.6637 44.588 37.9399 44.588 37.9399C44.588 37.9399 45.755 40.6623 50.1139 39.6386L50.1956 39.6208C50.3651 39.592 51.495 39.2997 54.1055 37.9742C54.1055 37.9742 55.3261 37.4253 56.2686 35.1241C56.7504 33.9873 57.0344 32.7874 57.1101 31.5687L57.3985 25.7822Z" fill="white"/>
<path d="M61.6949 17.3778L65.0279 20.5421C65.1514 20.6635 65.3194 20.7383 65.4992 20.752C65.7579 20.7685 66.0731 20.6532 66.1206 20.0179C66.1265 19.9351 66.113 19.8521 66.0812 19.7744C66.0494 19.6968 66 19.6264 65.9363 19.5678L63.0819 16.8906C62.9477 16.7641 62.8697 16.5956 62.8634 16.4186L62.6716 11.1631C62.6681 10.9839 62.5898 10.8128 62.4531 10.6856C62.2524 10.5058 61.9223 10.3507 61.5105 10.6663C61.421 10.7355 61.3499 10.8226 61.3028 10.9211C61.2556 11.0196 61.2336 11.1268 61.2385 11.2344L61.4763 16.8948C61.4824 17.0751 61.5602 17.247 61.6949 17.3778Z" fill="white"/>
</svg>
