<svg width="106" height="55" viewBox="0 0 106 55" fill="none" xmlns="http://www.w3.org/2000/svg">
<path d="M33.727 1.58105L19.6439 28.9247H14.1436L0 1.58105H6.40693L14.8689 18.4996C15.2316 19.2541 15.5539 20.0484 15.836 20.8824C16.1181 21.6767 16.4001 22.471 16.6822 23.2653H17.1053C17.3874 22.471 17.6694 21.6767 17.9515 20.8824C18.2738 20.0484 18.5962 19.274 18.9186 18.5591L27.3805 1.58105H33.727ZM19.8856 24.8738V42.6859H13.8414V24.8738H19.8856Z" fill="white"/>
<path d="M103.289 1.58105V26.3726C103.289 30.3096 102.809 33.4865 101.848 35.9033C100.926 38.2811 99.408 40.0157 97.2945 41.1072C95.1811 42.1596 92.3568 42.6859 88.8216 42.6859C85.1327 42.6859 82.1931 42.1596 80.0028 41.1072C77.8126 40.0157 76.2179 38.2811 75.2188 35.9033C74.2582 33.4865 73.7778 30.3096 73.7778 26.3726V1.58105H79.5417V26.3726C79.5417 29.1792 79.8107 31.4205 80.3487 33.0967C80.9251 34.7339 81.8665 35.9033 83.173 36.6049C84.5179 37.2676 86.3047 37.5989 88.5334 37.5989C90.7621 37.5989 92.5105 37.2676 93.7786 36.6049C95.085 35.9033 96.0265 34.7339 96.6029 33.0967C97.2177 31.4205 97.5251 29.1792 97.5251 26.3726V1.58105H103.289Z" fill="white"/>
<path d="M66.5115 16.7012C66.5115 16.7012 67.5521 6.62099 63 4.14966C63 4.14966 65.5377 9.51085 64.9475 14.8391L66.5115 16.7012Z" fill="white"/>
<path d="M60.7836 7.8334C60.8573 8.00578 60.9828 8.15518 61.1452 8.26407C61.3077 8.37295 61.5004 8.43681 61.7009 8.44814C62.0963 8.46324 62.4367 8.24368 62.0948 7.24609C61.4526 5.36892 60.342 3.84441 59.9734 3.73189C59.6849 3.64269 59.2434 3.55487 59.0814 4.40564C58.9372 5.21935 59.5274 5.00803 60.7836 7.8334Z" fill="white"/>
<path d="M57.6963 1.4147C57.8667 1.52581 58.005 1.67392 58.0988 1.84597C58.1927 2.01802 58.2392 2.20873 58.2344 2.40131C58.2166 2.79925 57.9624 3.13681 56.8786 2.53853C55.331 1.68639 53.886 0.683315 52.3755 0.343009C52.3357 0.334082 52.3007 0.312498 52.2764 0.282054C52.2522 0.25161 52.2404 0.214256 52.243 0.176561C52.2457 0.138866 52.2627 0.103245 52.291 0.0759637C52.3193 0.048682 52.3571 0.0314869 52.3978 0.0274027C53.4542 -0.064765 54.5192 0.0763389 55.5049 0.439063C55.5049 0.439063 56.8355 0.843862 57.6963 1.4147Z" fill="white"/>
<path d="M66.3451 25.7403C66.4387 25.6512 66.5031 25.5396 66.531 25.4182C66.5589 25.2968 66.5491 25.1706 66.5027 25.0542C66.3391 24.6329 65.96 24.1348 65.1379 24.7989C63.8861 25.8103 61.9044 27.6394 61.9044 27.6394C61.9044 27.6394 64.1062 41.4588 51.5811 44.1552C51.5811 44.1552 63.3123 46.6115 63.5219 28.4586L66.3451 25.7403Z" fill="white"/>
<path d="M38.5331 36.6033C38.5331 36.6033 37.3289 33.0891 42.2899 29.4335C42.2899 29.4335 42.8102 26.8332 39.5247 29.8658C36.2392 32.8983 38.0113 36.2671 38.5331 36.6033Z" fill="white"/>
<path d="M36.6952 20.2636C36.6952 20.2636 41.234 24.9826 37.165 28.4022C36.9152 29.1209 36.7575 29.8643 36.6952 30.6169C38.1751 29.465 39.3494 28.0155 40.1279 26.3795C41.4436 23.6351 40.0774 21.1652 37.7389 19.0122C37.3419 18.6458 35.656 18.8928 36.6952 20.2636Z" fill="white"/>
<path d="M36.707 23.2175C36.707 23.2175 38.5847 24.7585 36.707 25.7698V23.2175Z" fill="white"/>
<path d="M37.125 13.9727V15.8498C37.125 15.8498 41.9373 20.2326 42.3194 25.0436V26.7067C42.3161 26.8408 42.3555 26.9728 42.4326 27.0864C42.5098 27.2001 42.6213 27.2904 42.7535 27.3461C43.0419 27.4628 43.418 27.4065 43.6975 26.6326C44.2193 25.1931 43.8016 20.2326 37.125 13.9727Z" fill="white"/>
<path d="M49.0724 24.9904C48.9129 24.8715 48.782 24.7232 48.6881 24.5549C48.5942 24.3867 48.5392 24.2023 48.5268 24.0134C48.4138 22.5589 47.7507 18.0114 43.8572 14.4999C43.8572 14.4999 40.1286 11.2067 40.1673 7.96689C40.1668 7.67588 40.2656 7.39213 40.4498 7.15592C40.762 6.7621 41.2986 6.41493 41.7149 7.85574C42.3408 10.0224 40.9314 9.97442 45.4182 13.9703C45.4182 13.9703 49.3578 17.7507 49.7443 22.8786C49.7443 22.9088 49.7443 22.939 49.7548 22.9678C49.8157 23.3205 50.1591 25.7808 49.0724 24.9904Z" fill="white"/>
<path d="M55.4956 16.4835C55.6098 16.5751 55.7495 16.6353 55.8989 16.6573C56.0483 16.6793 56.2014 16.6621 56.3407 16.6078C56.4801 16.5535 56.6002 16.4642 56.6873 16.35C56.7744 16.2359 56.8251 16.1015 56.8336 15.9621C56.9436 14.1686 57.0328 9.27947 54.9367 7.21568C52.3737 4.68809 46.372 2.91932 44.4007 5.73919C44.3531 5.80643 44.4423 5.66784 44.4007 5.73919C44.1346 6.18516 43.3972 7.54089 44.2714 9.76935C44.3044 9.84319 44.3531 9.91017 44.4147 9.96631C44.4763 10.0224 44.5495 10.0666 44.6299 10.0962C44.7103 10.1257 44.7963 10.1401 44.8828 10.1384C44.9694 10.1367 45.0546 10.119 45.1336 10.0863C45.4533 9.9491 45.6763 9.56352 45.2065 8.50143C45.1764 8.42048 45.1559 8.33674 45.1455 8.25169C45.0088 7.55599 45.2511 4.85687 50.001 6.21123C55.2964 7.72065 55.2726 10.0328 55.2206 15.9209C55.2191 16.0254 55.2415 16.1291 55.2864 16.2251C55.3312 16.3211 55.3974 16.4073 55.4808 16.478L55.4956 16.4835Z" fill="white"/>
<path d="M46.5621 12.5325L49.6053 16.6491C49.6311 16.6837 49.6599 16.7163 49.6916 16.7465C49.9517 16.9949 51.1143 18.0501 50.8155 16.6998C50.8111 16.6774 50.8047 16.6554 50.7961 16.634C50.6653 16.2854 49.4849 13.2844 47.4036 12.0151C46.8119 11.6542 46.1949 12.0343 46.5621 12.5325Z" fill="white"/>
<path d="M41.3996 5.54802C41.5123 5.58865 41.6349 5.60003 41.7542 5.58092C41.8734 5.56181 41.9847 5.51295 42.076 5.43962C42.2158 5.32475 42.3451 5.19946 42.4625 5.06501C42.5607 4.95386 42.6484 4.85781 42.7257 4.77547C43.1405 4.33774 42.7257 3.64204 42.1057 3.76416C41.9442 3.79879 41.7923 3.86423 41.6597 3.95627C41.3185 4.16632 41.0762 4.488 40.9818 4.85643C40.9521 4.99758 40.9775 5.14388 41.0534 5.26944C41.1293 5.395 41.2509 5.49174 41.3966 5.54253L41.3996 5.54802Z" fill="white"/>
<path d="M42.0862 17.1013C42.0862 17.1013 37.4894 12.6074 37.5415 10.4242C37.5935 8.24101 38.5018 7.76074 38.5018 7.76074C38.5018 7.76074 38.0558 9.86707 39.315 11.8773C40.5742 13.8876 42.8102 15.8567 43.2279 16.385C43.6457 16.9133 42.6987 17.7243 42.0862 17.1013Z" fill="white"/>
<path d="M50.3697 12.9453C50.3697 12.9453 48.7507 11.3714 48.6585 11.0022C48.5663 10.6331 48.7581 10.3161 49.158 10.2969C49.5579 10.2777 50.444 11.1834 50.6016 11.9655C50.7592 12.7477 50.3697 12.9453 50.3697 12.9453Z" fill="white"/>
<path d="M56.4087 38.5941C56.4784 38.6886 56.5701 38.7676 56.677 38.8251C56.784 38.8827 56.9035 38.9175 57.0269 38.927C57.1503 38.9365 57.2745 38.9204 57.3903 38.8799C57.506 38.8394 57.6106 38.7755 57.6962 38.6929C57.9519 38.4514 58.2492 38.1111 58.2908 37.8065C58.3607 37.2576 57.8448 36.7156 57.3171 37.0532C56.7893 37.3907 56.3775 38.0645 56.3255 38.3211C56.3159 38.4184 56.3456 38.5156 56.4087 38.5941Z" fill="white"/>
<path d="M66.544 28.0005L65.3993 29.2204C65.3993 29.2204 65.7115 36.2186 62.5122 40.7469C62.5122 40.7441 67.3245 39.1386 66.544 28.0005Z" fill="white"/>
<path d="M49.1771 28.7577C49.2959 28.8441 49.4444 28.8884 49.5955 28.8823C49.7467 28.8763 49.8905 28.8204 50.0007 28.7248C50.071 28.6672 50.1282 28.5973 50.1688 28.519C50.2094 28.4408 50.2326 28.3559 50.2371 28.2692C50.2698 27.7931 50.3085 26.7227 50.0275 26.5238L50.0141 26.5155C49.9089 26.4479 49.7861 26.4072 49.6583 26.3975C49.5305 26.3878 49.4022 26.4095 49.2864 26.4604C49.1706 26.5112 49.0715 26.5895 48.999 26.6871C48.9266 26.7848 48.8834 26.8984 48.8738 27.0164C48.8493 27.4213 48.8493 27.8272 48.8738 28.2322C48.8762 28.3356 48.9049 28.437 48.9576 28.5283C49.0103 28.6196 49.0855 28.6982 49.1771 28.7577Z" fill="white"/>
<path d="M58.5878 35.93C58.7638 35.9254 58.9344 35.8727 59.078 35.7787C59.2217 35.6847 59.332 35.5535 59.395 35.4017C59.6544 34.7918 59.7977 34.1452 59.8187 33.4903C59.8708 32.0934 60.2543 29.349 59.7489 28.7877C59.7489 28.7877 58.9148 28.4982 58.7231 29.2529C58.5313 30.0076 58.5625 33.4258 58.2949 34.1928C58.2949 34.1928 57.8712 35.2357 58.1314 35.7023C58.1745 35.7776 58.2409 35.8395 58.3221 35.8801C58.4034 35.9206 58.4958 35.938 58.5878 35.93Z" fill="white"/>
<path d="M41.7885 36.2949C42.0144 38.0596 43.6542 45.5079 55.0019 39.6719C55.0808 39.6311 55.1678 39.6054 55.2578 39.5964C55.3477 39.5875 55.4387 39.5954 55.5252 39.6198C55.8805 39.724 56.322 40.0053 55.5609 40.7504C54.4533 41.8372 42.2345 47.6361 40.5174 36.4692C40.4992 36.3898 40.4988 36.3079 40.5162 36.2284C40.5336 36.149 40.5684 36.0736 40.6185 36.007C40.6687 35.9404 40.733 35.884 40.8077 35.8413C40.8823 35.7985 40.9657 35.7703 41.0526 35.7584C41.1395 35.7465 41.2281 35.7511 41.313 35.772C41.3978 35.7929 41.4772 35.8296 41.5461 35.8799C41.6151 35.9301 41.6721 35.9929 41.7138 36.0642C41.7555 36.1356 41.7809 36.2141 41.7885 36.2949Z" fill="white"/>
<path d="M47.2549 7.8693C47.2549 8.10669 47.4511 8.38113 47.7306 8.6391C48.3565 9.2168 53.209 7.48234 52.3735 14.5135C52.3735 14.5135 51.8591 19.3683 53.9716 21.734C54.0635 21.8368 54.1137 21.9658 54.1137 22.099C54.1137 22.2322 54.0635 22.3613 53.9716 22.464C53.2892 23.2311 51.9721 25.3841 52.5221 30.2101C52.5221 30.2101 53.3532 35.4821 48.1186 35.7401C48.0115 35.7441 47.9074 35.774 47.8168 35.8269C47.7262 35.8797 47.6523 35.9537 47.6024 36.0413C47.5525 36.1289 47.5285 36.227 47.5328 36.3259C47.537 36.4248 47.5694 36.5209 47.6266 36.6046L47.6385 36.6197C47.6854 36.6801 47.7453 36.7311 47.8143 36.7695C47.8833 36.808 47.96 36.8331 48.0399 36.8433C49.0077 36.9888 53.0945 37.3003 53.7308 32.4262C54.428 27.1391 52.7005 25.6517 55.9905 22.5628C56.0491 22.508 56.095 22.4428 56.1255 22.3711C56.156 22.2995 56.1704 22.2228 56.1679 22.1459C56.1654 22.0689 56.146 21.9932 56.1109 21.9234C56.0758 21.8535 56.0258 21.791 55.9637 21.7395C55.0242 20.9738 53.2342 18.9292 53.9389 14.8483C53.9389 14.8483 55.2383 6.59864 47.5106 7.42882C47.4712 7.43295 47.4338 7.44669 47.4021 7.46861C47.3471 7.52128 47.3054 7.58451 47.28 7.65377C47.2545 7.72303 47.246 7.79663 47.2549 7.8693Z" fill="white"/>
<path d="M46.1491 30.7275C44.4648 31.2174 42.9543 32.8819 42.9543 32.8819C42.324 33.9439 41.8586 33.9714 41.5613 33.7655C41.4183 33.66 41.3205 33.5112 41.2851 33.3454C41.2497 33.1796 41.2791 33.0076 41.3681 32.8599C42.706 30.5272 43.7467 30.1361 44.5317 29.8836L44.6328 29.8493C44.9449 29.7248 45.2123 29.5209 45.4037 29.2614C45.5951 29.0019 45.7025 28.6975 45.7136 28.3838C45.7909 26.7371 45.8474 21.7547 43.9801 18.7249C43.8905 18.5835 43.8572 18.4177 43.886 18.2561C43.9147 18.0945 44.0038 17.9472 44.1377 17.8398C44.3889 17.6477 44.7532 17.6051 45.2096 18.2075C46.1239 19.411 48.7315 30.1457 46.1491 30.7275Z" fill="white"/>
<path d="M59.3191 18.6498L63.2528 22.3273L59.3607 25.9884C59.2569 26.0817 59.1822 26.1991 59.1442 26.3282C59.1063 26.4574 59.1066 26.5935 59.1451 26.7225C59.2091 26.9228 59.3711 27.1012 59.7398 27.0834C59.8954 27.076 60.043 27.0176 60.1561 26.9187L65.3594 22.3754L60.3716 17.8361C60.267 17.7392 60.1357 17.6705 59.9918 17.6374C59.848 17.6042 59.6971 17.608 59.5554 17.6481C59.4501 17.6724 59.3539 17.7228 59.2774 17.7939C59.2009 17.865 59.1469 17.9541 59.1213 18.0515C59.0966 18.1586 59.1018 18.2696 59.1364 18.3743C59.171 18.479 59.2338 18.5738 59.3191 18.6498Z" fill="white"/>
<path d="M44.537 2.18878C44.4678 2.30389 44.4375 2.43545 44.45 2.56656C44.4625 2.69766 44.5171 2.82234 44.6069 2.92456C44.6968 3.02678 44.8176 3.10189 44.954 3.14023C45.0904 3.17857 45.2362 3.17839 45.3725 3.13972C46.6361 2.78981 50.329 2.11194 54.3801 4.58602C54.3801 4.58602 57.566 6.54552 58.131 9.80038C58.1324 9.82415 58.1324 9.84797 58.131 9.87174L58.4833 15.1973C58.4906 15.3253 58.5387 15.4484 58.6216 15.5513C58.846 15.8257 59.3366 16.2621 59.8644 15.6885C59.9739 15.5692 60.0345 15.4181 60.0354 15.2617C60.0354 14.4494 60.0116 11.4429 59.5641 9.78803C59.0423 7.86695 58.1547 5.21312 55.1041 3.432C52.1026 1.6797 47.7139 0.672502 44.8462 1.92258C44.7227 1.9765 44.6193 2.06291 44.5488 2.17095L44.537 2.18878Z" fill="white"/>
<path d="M57.3985 25.7821C57.3985 25.7821 57.5293 24.8216 61.2326 22.0497L57.7166 18.7167C57.5868 18.5899 57.413 18.509 57.2253 18.4882C57.0377 18.4674 56.848 18.508 56.6894 18.6028C56.5829 18.6654 56.5023 18.7592 56.4605 18.8692C56.4187 18.9792 56.4182 19.099 56.4589 19.2093C56.6685 19.9791 59.1914 21.9537 59.1914 21.9537L57.0848 23.8555C57.0848 23.8555 56.0442 24.7461 55.9371 26.0223C55.8524 27.072 55.8018 29.1619 55.7884 29.8727C55.7884 30.0099 55.7884 30.1471 55.7884 30.2843C55.8197 31.2202 55.8271 35.732 53.1199 37.0246C53.1199 37.0246 47.5315 40.2451 45.7654 36.7584C45.7086 36.6468 45.6763 36.5261 45.6702 36.403C45.6435 35.8033 45.7684 33.9591 48.321 33.7958C48.321 33.7958 50.9969 33.7958 50.7695 31.0184C50.7577 30.8517 50.6873 30.693 50.569 30.5664C50.4507 30.4399 50.2909 30.3524 50.1139 30.3172C49.7987 30.2596 49.4523 30.3927 49.3349 31.1502C49.1 32.6678 48.8651 32.4263 47.6653 32.499C47.6653 32.499 45.422 32.6678 44.588 34.6658C43.7539 36.6637 44.588 37.9398 44.588 37.9398C44.588 37.9398 45.755 40.6623 50.1139 39.6386L50.1956 39.6208C50.3651 39.592 51.495 39.2997 54.1055 37.9741C54.1055 37.9741 55.3261 37.4253 56.2686 35.1241C56.7504 33.9873 57.0344 32.7874 57.1101 31.5687L57.3985 25.7821Z" fill="white"/>
<path d="M61.6949 17.3777L65.0279 20.542C65.1514 20.6634 65.3194 20.7382 65.4992 20.7519C65.7579 20.7684 66.0731 20.6531 66.1206 20.0178C66.1265 19.935 66.113 19.852 66.0812 19.7743C66.0494 19.6967 66 19.6263 65.9363 19.5677L63.0819 16.8906C62.9477 16.764 62.8697 16.5956 62.8634 16.4185L62.6716 11.163C62.6681 10.9838 62.5898 10.8127 62.4531 10.6855C62.2524 10.5057 61.9223 10.3506 61.5105 10.6663C61.421 10.7354 61.3499 10.8225 61.3028 10.921C61.2556 11.0195 61.2336 11.1267 61.2385 11.2343L61.4763 16.8947C61.4824 17.075 61.5602 17.2469 61.6949 17.3777Z" fill="white"/>
<path d="M7.85789 48.5983L9.48316 51.4302L11.1232 48.5983H11.6465L9.71165 51.8373V53.7979H9.25835V51.8373L7.31982 48.5983H7.85789Z" fill="#E9E9E9"/>
<path d="M16.2827 50.9196V51.4767C16.2827 51.8409 16.2336 52.1707 16.1353 52.4659C16.0395 52.7587 15.8994 53.0099 15.7152 53.2194C15.5334 53.4289 15.3147 53.5896 15.0592 53.7015C14.8036 53.8134 14.5162 53.8694 14.1968 53.8694C13.8848 53.8694 13.5997 53.8134 13.3418 53.7015C13.0862 53.5896 12.8664 53.4289 12.6821 53.2194C12.4978 53.0099 12.3553 52.7587 12.2546 52.4659C12.1538 52.1707 12.1035 51.8409 12.1035 51.4767V50.9196C12.1035 50.5553 12.1526 50.2267 12.2509 49.9339C12.3516 49.6387 12.4941 49.3863 12.6784 49.1768C12.8627 48.9673 13.0826 48.8066 13.3381 48.6947C13.5936 48.5828 13.8774 48.5269 14.1894 48.5269C14.5088 48.5269 14.7963 48.5828 15.0518 48.6947C15.3073 48.8066 15.5272 48.9673 15.7115 49.1768C15.8958 49.3863 16.037 49.6387 16.1353 49.9339C16.2336 50.2267 16.2827 50.5553 16.2827 50.9196ZM15.8331 51.4767V50.9124C15.8331 50.6053 15.7962 50.3291 15.7225 50.0839C15.6513 49.8387 15.5444 49.6292 15.4019 49.4554C15.2619 49.2816 15.0899 49.1482 14.886 49.0554C14.682 48.9625 14.4498 48.9161 14.1894 48.9161C13.9363 48.9161 13.7091 48.9625 13.5076 49.0554C13.3061 49.1482 13.1342 49.2816 12.9917 49.4554C12.8516 49.6292 12.7435 49.8387 12.6673 50.0839C12.5936 50.3291 12.5568 50.6053 12.5568 50.9124V51.4767C12.5568 51.7862 12.5936 52.0647 12.6673 52.3123C12.7435 52.5575 12.8528 52.7682 12.9953 52.9444C13.1378 53.1182 13.3098 53.2515 13.5113 53.3444C13.7152 53.4372 13.9437 53.4837 14.1968 53.4837C14.4597 53.4837 14.6919 53.4372 14.8933 53.3444C15.0948 53.2515 15.2656 53.1182 15.4056 52.9444C15.5456 52.7682 15.6513 52.5575 15.7225 52.3123C15.7962 52.0647 15.8331 51.7862 15.8331 51.4767Z" fill="#E9E9E9"/>
<path d="M20.6683 48.5983H21.1217V52.1195C21.1217 52.5099 21.0369 52.8349 20.8674 53.0944C20.6978 53.3539 20.4693 53.5479 20.1819 53.6765C19.8969 53.8051 19.5812 53.8694 19.2347 53.8694C18.8785 53.8694 18.5578 53.8051 18.2728 53.6765C17.9878 53.5479 17.7618 53.3539 17.5947 53.0944C17.4301 52.8349 17.3478 52.5099 17.3478 52.1195V48.5983H17.7974V52.1195C17.7974 52.4218 17.8588 52.6754 17.9817 52.8801C18.1045 53.0849 18.2741 53.2384 18.4903 53.3408C18.7065 53.4432 18.9546 53.4944 19.2347 53.4944C19.5124 53.4944 19.7593 53.4432 19.9755 53.3408C20.1917 53.2384 20.3612 53.0849 20.4841 52.8801C20.6069 52.6754 20.6683 52.4218 20.6683 52.1195V48.5983Z" fill="#E9E9E9"/>
<path d="M22.3857 48.5983H24.1289C24.4999 48.5983 24.8218 48.6566 25.0945 48.7733C25.3672 48.8899 25.5773 49.0625 25.7247 49.2911C25.8746 49.5173 25.9495 49.7958 25.9495 50.1267C25.9495 50.372 25.8955 50.5946 25.7874 50.7946C25.6817 50.9945 25.5355 51.1624 25.3488 51.2981C25.1621 51.4314 24.9459 51.5231 24.7002 51.5731L24.5417 51.6302H22.6806L22.6732 51.2552H24.2321C24.5122 51.2552 24.7456 51.2029 24.9324 51.0981C25.1191 50.9934 25.2591 50.8553 25.3525 50.6839C25.4483 50.5101 25.4962 50.3244 25.4962 50.1267C25.4962 49.891 25.4434 49.6875 25.3378 49.5161C25.2346 49.3423 25.081 49.209 24.8771 49.1161C24.6732 49.0233 24.4238 48.9768 24.1289 48.9768H22.8391V53.7979H22.3857V48.5983ZM25.6989 53.7979L24.3095 51.4731L24.796 51.4695L26.1817 53.7515V53.7979H25.6989Z" fill="#E9E9E9"/>
<path d="M32.3806 52.1766H32.8339C32.797 52.5266 32.6975 52.8289 32.5353 53.0837C32.3732 53.3361 32.1521 53.5301 31.872 53.6658C31.5919 53.8015 31.2541 53.8694 30.8585 53.8694C30.5538 53.8694 30.2774 53.8134 30.0293 53.7015C29.7836 53.5896 29.5723 53.4313 29.3954 53.2265C29.2185 53.0194 29.0821 52.7718 28.9863 52.4837C28.8905 52.1957 28.8426 51.8754 28.8426 51.5231V50.8731C28.8426 50.5208 28.8905 50.2017 28.9863 49.916C29.0821 49.628 29.2197 49.3804 29.3991 49.1732C29.5784 48.9661 29.7934 48.8066 30.044 48.6947C30.2946 48.5828 30.5772 48.5269 30.8917 48.5269C31.2725 48.5269 31.6017 48.5947 31.8793 48.7304C32.157 48.8637 32.3756 49.0566 32.5353 49.3089C32.6975 49.5613 32.797 49.8661 32.8339 50.2232H32.3806C32.3462 49.9422 32.27 49.7042 32.1521 49.5089C32.0341 49.3137 31.8707 49.1649 31.6619 49.0625C31.4555 48.9578 31.1988 48.9054 30.8917 48.9054C30.641 48.9054 30.4175 48.9518 30.2209 49.0447C30.0244 49.1375 29.8573 49.2709 29.7197 49.4447C29.5821 49.6161 29.4765 49.822 29.4028 50.0625C29.3315 50.3029 29.2959 50.5708 29.2959 50.866V51.5231C29.2959 51.8088 29.3303 52.0719 29.3991 52.3123C29.4679 52.5528 29.5686 52.7611 29.7013 52.9373C29.8364 53.1135 30.001 53.2503 30.1951 53.348C30.3892 53.4456 30.6103 53.4944 30.8585 53.4944C31.1754 53.4944 31.4396 53.4456 31.6508 53.348C31.8646 53.248 32.0304 53.1004 32.1484 52.9051C32.2663 52.7099 32.3437 52.4671 32.3806 52.1766Z" fill="#E9E9E9"/>
<path d="M37.9013 50.9196V51.4767C37.9013 51.8409 37.8521 52.1707 37.7539 52.4659C37.6581 52.7587 37.518 53.0099 37.3337 53.2194C37.1519 53.4289 36.9333 53.5896 36.6777 53.7015C36.4222 53.8134 36.1348 53.8694 35.8154 53.8694C35.5033 53.8694 35.2183 53.8134 34.9603 53.7015C34.7048 53.5896 34.4849 53.4289 34.3006 53.2194C34.1164 53.0099 33.9739 52.7587 33.8731 52.4659C33.7724 52.1707 33.722 51.8409 33.722 51.4767V50.9196C33.722 50.5553 33.7712 50.2267 33.8695 49.9339C33.9702 49.6387 34.1127 49.3863 34.297 49.1768C34.4812 48.9673 34.7011 48.8066 34.9567 48.6947C35.2122 48.5828 35.4959 48.5269 35.808 48.5269C36.1274 48.5269 36.4148 48.5828 36.6704 48.6947C36.9259 48.8066 37.1458 48.9673 37.3301 49.1768C37.5143 49.3863 37.6556 49.6387 37.7539 49.9339C37.8521 50.2267 37.9013 50.5553 37.9013 50.9196ZM37.4517 51.4767V50.9124C37.4517 50.6053 37.4148 50.3291 37.3411 50.0839C37.2699 49.8387 37.163 49.6292 37.0205 49.4554C36.8804 49.2816 36.7084 49.1482 36.5045 49.0554C36.3006 48.9625 36.0684 48.9161 35.808 48.9161C35.5549 48.9161 35.3276 48.9625 35.1262 49.0554C34.9247 49.1482 34.7527 49.2816 34.6102 49.4554C34.4702 49.6292 34.3621 49.8387 34.2859 50.0839C34.2122 50.3291 34.1753 50.6053 34.1753 50.9124V51.4767C34.1753 51.7862 34.2122 52.0647 34.2859 52.3123C34.3621 52.5575 34.4714 52.7682 34.6139 52.9444C34.7564 53.1182 34.9284 53.2515 35.1299 53.3444C35.3338 53.4372 35.5623 53.4837 35.8154 53.4837C36.0782 53.4837 36.3104 53.4372 36.5119 53.3444C36.7134 53.2515 36.8841 53.1182 37.0242 52.9444C37.1642 52.7682 37.2699 52.5575 37.3411 52.3123C37.4148 52.0647 37.4517 51.7862 37.4517 51.4767Z" fill="#E9E9E9"/>
<path d="M40.5142 53.7979H39.2981L39.3054 53.423H40.5142C40.9 53.423 41.2317 53.3396 41.5093 53.173C41.7894 53.0039 42.0056 52.7706 42.1579 52.473C42.3103 52.1754 42.3864 51.8302 42.3864 51.4374V50.9517C42.3864 50.6517 42.3422 50.3803 42.2537 50.1375C42.1678 49.8946 42.0437 49.6875 41.8815 49.5161C41.7194 49.3423 41.5253 49.209 41.2992 49.1161C41.0756 49.0233 40.825 48.9768 40.5474 48.9768H39.2759V48.5983H40.5474C40.8815 48.5983 41.1874 48.6542 41.4651 48.7661C41.7452 48.8756 41.9872 49.0352 42.1911 49.2447C42.3975 49.4518 42.556 49.7006 42.6665 49.991C42.7795 50.2815 42.836 50.6053 42.836 50.9624V51.4374C42.836 51.7945 42.7795 52.1183 42.6665 52.4087C42.556 52.6992 42.3975 52.948 42.1911 53.1551C41.9847 53.3622 41.7402 53.5218 41.4577 53.6337C41.1752 53.7432 40.8607 53.7979 40.5142 53.7979ZM39.5008 48.5983V53.7979H39.0474V48.5983H39.5008Z" fill="#E9E9E9"/>
<path d="M47.3285 53.423V53.7979H44.3102V53.423H47.3285ZM44.4466 48.5983V53.7979H43.9933V48.5983H44.4466ZM46.9526 50.9303V51.3052H44.3102V50.9303H46.9526ZM47.3101 48.5983V48.9768H44.3102V48.5983H47.3101Z" fill="#E9E9E9"/>
<path d="M50.4832 48.5983V54.7622H50.111V48.5983H50.4832Z" fill="#E9E9E9"/>
<path d="M53.5937 48.5983L55.219 51.4302L56.859 48.5983H57.3823L55.4475 51.8373V53.7979H54.9942V51.8373L53.0557 48.5983H53.5937Z" fill="#E9E9E9"/>
<path d="M62.0186 50.9196V51.4767C62.0186 51.8409 61.9694 52.1707 61.8711 52.4659C61.7753 52.7587 61.6353 53.0099 61.451 53.2194C61.2692 53.4289 61.0505 53.5896 60.795 53.7015C60.5395 53.8134 60.252 53.8694 59.9326 53.8694C59.6206 53.8694 59.3356 53.8134 59.0776 53.7015C58.8221 53.5896 58.6022 53.4289 58.4179 53.2194C58.2337 53.0099 58.0911 52.7587 57.9904 52.4659C57.8897 52.1707 57.8393 51.8409 57.8393 51.4767V50.9196C57.8393 50.5553 57.8885 50.2267 57.9867 49.9339C58.0875 49.6387 58.23 49.3863 58.4142 49.1768C58.5985 48.9673 58.8184 48.8066 59.0739 48.6947C59.3294 48.5828 59.6132 48.5269 59.9252 48.5269C60.2447 48.5269 60.5321 48.5828 60.7876 48.6947C61.0432 48.8066 61.2631 48.9673 61.4473 49.1768C61.6316 49.3863 61.7729 49.6387 61.8711 49.9339C61.9694 50.2267 62.0186 50.5553 62.0186 50.9196ZM61.5689 51.4767V50.9124C61.5689 50.6053 61.5321 50.3291 61.4584 50.0839C61.3871 49.8387 61.2802 49.6292 61.1377 49.4554C60.9977 49.2816 60.8257 49.1482 60.6218 49.0554C60.4179 48.9625 60.1857 48.9161 59.9252 48.9161C59.6722 48.9161 59.4449 48.9625 59.2435 49.0554C59.042 49.1482 58.87 49.2816 58.7275 49.4554C58.5874 49.6292 58.4793 49.8387 58.4032 50.0839C58.3295 50.3291 58.2926 50.6053 58.2926 50.9124V51.4767C58.2926 51.7862 58.3295 52.0647 58.4032 52.3123C58.4793 52.5575 58.5887 52.7682 58.7312 52.9444C58.8737 53.1182 59.0457 53.2515 59.2471 53.3444C59.4511 53.4372 59.6796 53.4837 59.9326 53.4837C60.1955 53.4837 60.4277 53.4372 60.6292 53.3444C60.8306 53.2515 61.0014 53.1182 61.1414 52.9444C61.2815 52.7682 61.3871 52.5575 61.4584 52.3123C61.5321 52.0647 61.5689 51.7862 61.5689 51.4767Z" fill="#E9E9E9"/>
<path d="M66.4042 48.5983H66.8575V52.1195C66.8575 52.5099 66.7727 52.8349 66.6032 53.0944C66.4337 53.3539 66.2052 53.5479 65.9177 53.6765C65.6327 53.8051 65.317 53.8694 64.9706 53.8694C64.6143 53.8694 64.2937 53.8051 64.0087 53.6765C63.7237 53.5479 63.4976 53.3539 63.3306 53.0944C63.1659 52.8349 63.0836 52.5099 63.0836 52.1195V48.5983H63.5333V52.1195C63.5333 52.4218 63.5947 52.6754 63.7175 52.8801C63.8404 53.0849 64.0099 53.2384 64.2261 53.3408C64.4423 53.4432 64.6905 53.4944 64.9706 53.4944C65.2482 53.4944 65.4951 53.4432 65.7113 53.3408C65.9275 53.2384 66.0971 53.0849 66.2199 52.8801C66.3428 52.6754 66.4042 52.4218 66.4042 52.1195V48.5983Z" fill="#E9E9E9"/>
<path d="M68.1216 48.5983H69.8648C70.2358 48.5983 70.5576 48.6566 70.8304 48.7733C71.1031 48.8899 71.3131 49.0625 71.4606 49.2911C71.6104 49.5173 71.6854 49.7958 71.6854 50.1267C71.6854 50.372 71.6313 50.5946 71.5232 50.7946C71.4176 50.9945 71.2714 51.1624 71.0846 51.2981C70.8979 51.4314 70.6817 51.5231 70.436 51.5731L70.2775 51.6302H68.4164L68.409 51.2552H69.968C70.2481 51.2552 70.4815 51.2029 70.6682 51.0981C70.8549 50.9934 70.995 50.8553 71.0883 50.6839C71.1842 50.5101 71.2321 50.3244 71.2321 50.1267C71.2321 49.891 71.1792 49.6875 71.0736 49.5161C70.9704 49.3423 70.8168 49.209 70.6129 49.1161C70.409 49.0233 70.1596 48.9768 69.8648 48.9768H68.5749V53.7979H68.1216V48.5983ZM71.4348 53.7979L70.0454 51.4731L70.5318 51.4695L71.9175 53.7515V53.7979H71.4348Z" fill="#E9E9E9"/>
<path d="M75.3265 48.5983V53.7979H74.8732V48.5983H75.3265Z" fill="#E9E9E9"/>
<path d="M78.2528 53.7979H77.0366L77.0439 53.423H78.2528C78.6385 53.423 78.9702 53.3396 79.2478 53.173C79.5279 53.0039 79.7441 52.7706 79.8964 52.473C80.0488 52.1754 80.1249 51.8302 80.1249 51.4374V50.9517C80.1249 50.6517 80.0807 50.3803 79.9923 50.1375C79.9063 49.8946 79.7822 49.6875 79.62 49.5161C79.4579 49.3423 79.2638 49.209 79.0377 49.1161C78.8142 49.0233 78.5636 48.9768 78.2859 48.9768H77.0145V48.5983H78.2859C78.6201 48.5983 78.9259 48.6542 79.2036 48.7661C79.4837 48.8756 79.7257 49.0352 79.9296 49.2447C80.136 49.4518 80.2945 49.7006 80.405 49.991C80.518 50.2815 80.5746 50.6053 80.5746 50.9624V51.4374C80.5746 51.7945 80.518 52.1183 80.405 52.4087C80.2945 52.6992 80.136 52.948 79.9296 53.1551C79.7232 53.3622 79.4788 53.5218 79.1962 53.6337C78.9137 53.7432 78.5992 53.7979 78.2528 53.7979ZM77.2393 48.5983V53.7979H76.786V48.5983H77.2393Z" fill="#E9E9E9"/>
<path d="M85.0671 53.423V53.7979H82.0487V53.423H85.0671ZM82.1851 48.5983V53.7979H81.7318V48.5983H82.1851ZM84.6911 50.9303V51.3052H82.0487V50.9303H84.6911ZM85.0486 48.5983V48.9768H82.0487V48.5983H85.0486Z" fill="#E9E9E9"/>
<path d="M90.0239 48.5983V53.7979H89.5669L86.4823 49.3554V53.7979H86.0289V48.5983H86.4823L89.5743 53.0408V48.5983H90.0239Z" fill="#E9E9E9"/>
<path d="M93.0828 48.5983V53.7979H92.6332V48.5983H93.0828ZM94.9218 48.5983V48.9768H90.7979V48.5983H94.9218Z" fill="#E9E9E9"/>
<path d="M96.3481 48.5983V53.7979H95.8948V48.5983H96.3481Z" fill="#E9E9E9"/>
<path d="M99.4954 48.5983V53.7979H99.0458V48.5983H99.4954ZM101.334 48.5983V48.9768H97.2105V48.5983H101.334Z" fill="#E9E9E9"/>
<path d="M102.212 48.5983L103.837 51.4302L105.477 48.5983H106L104.065 51.8373V53.7979H103.612V51.8373L101.673 48.5983H102.212Z" fill="#E9E9E9"/>
</svg>
