<svg width="81" height="81" viewBox="0 0 81 81" fill="none" xmlns="http://www.w3.org/2000/svg">
<rect width="81" height="81" rx="40.5" fill="#E6E8F7"/>
<path d="M53.3571 18H27.6429C25.7441 18 24.1993 19.5448 24.1993 21.4435V59.5565C24.1993 61.4553 25.7441 63 27.6429 63H53.3571C55.2559 63 56.8007 61.4553 56.8007 59.5565V21.4435C56.8006 19.5448 55.2558 18 53.3571 18ZM40.5 60.5297C39.6917 60.5297 39.0365 59.8745 39.0365 59.0662C39.0365 58.2581 39.6917 57.6028 40.5 57.6028C41.3081 57.6028 41.9635 58.2581 41.9635 59.0662C41.9635 59.8745 41.3082 60.5297 40.5 60.5297ZM54.505 55.9706H26.495V25.0294H54.505V55.9706Z" fill="#031AAF"/>
<path d="M46.4404 37.3884C46.5049 37.4529 46.5946 37.4802 46.6867 37.4728C46.7792 37.4651 46.8742 37.4221 46.9511 37.3456L48.9436 35.353C49.0959 35.2005 49.1152 34.972 48.9857 34.8429L46.1574 32.0143C46.0283 31.885 45.7998 31.904 45.6471 32.0564L43.6544 34.0488C43.5017 34.2016 43.4825 34.4305 43.6118 34.5596L46.4404 37.3884Z" fill="#6D7AD1"/>
<path d="M32.2607 49.0702C32.2911 49.0675 32.3224 49.0611 32.3534 49.0503L36.386 47.6886C36.5139 47.6455 36.6203 47.5399 36.664 47.4124C36.7083 47.2851 36.6838 47.1545 36.6001 47.0709L33.9289 44.3998C33.8453 44.3161 33.7149 44.2917 33.5873 44.3355C33.4596 44.3795 33.3542 44.4855 33.3108 44.6136L31.9495 48.6464C31.9063 48.7735 31.9314 48.9022 32.0146 48.9852C32.0773 49.0484 32.1664 49.078 32.2607 49.0702Z" fill="#6D7AD1"/>
<path d="M37.3391 40.364L34.5227 43.1805C34.3699 43.3334 34.3508 43.5617 34.4804 43.6908L37.3092 46.5193C37.3736 46.5843 37.4628 46.6116 37.5554 46.604C37.6474 46.5964 37.7431 46.5533 37.8194 46.4772L40.6904 43.6061C40.941 43.8275 41.1895 44.0434 41.4347 44.2512C41.5483 44.3475 41.6914 44.3993 41.8383 44.3993C41.8717 44.3993 41.9047 44.3967 41.9382 44.3914C42.1185 44.3622 42.2767 44.2554 42.3717 44.0994C42.5391 43.8243 42.7578 43.5511 43.021 43.2881C43.3511 42.9579 43.7188 42.6993 44.113 42.5196C44.2905 42.4385 44.42 42.279 44.4631 42.0888C44.5057 41.8985 44.4574 41.6987 44.3318 41.5495C44.0969 41.2699 43.8509 40.9858 43.5975 40.6994L45.8111 38.4859C45.8841 38.4129 45.93 38.3176 45.9377 38.2217C45.9458 38.1263 45.9153 38.0374 45.8532 37.9756L43.0246 35.147C42.8955 35.0175 42.667 35.0365 42.5142 35.1891L40.3556 37.3483C38.9076 35.9757 37.4537 34.7513 36.1721 33.8299C35.2697 33.1815 33.6191 32.0913 32.7001 32.0774C32.5323 32.0744 32.37 32.1401 32.2508 32.2583C32.1314 32.3765 32.0651 32.5382 32.0662 32.7062C32.0711 33.3325 32.6208 34.4623 33.6138 35.8871C34.5588 37.2432 35.8575 38.8015 37.3391 40.364Z" fill="#6D7AD1"/>
<path d="M45.6786 43.0424C44.9516 43.0424 44.2573 43.3525 43.6712 43.9386C42.9673 44.6425 42.66 45.3809 42.7828 46.0739C42.9044 46.7604 43.4497 47.3752 44.2788 47.76C44.9925 48.0915 45.6426 48.1944 46.2164 48.2849C46.8201 48.3804 47.3899 48.4701 47.8968 48.8143C48.0022 48.8862 48.1249 48.9224 48.2479 48.9224C48.3344 48.9224 48.4212 48.9046 48.5026 48.8679C48.6999 48.7801 48.8381 48.5956 48.8664 48.3811C49.0841 46.7596 48.7732 45.3035 47.9907 44.2818C47.3871 43.4941 46.5444 43.0424 45.6786 43.0424Z" fill="#6D7AD1"/>
</svg>
