<svg width="82" height="81" viewBox="0 0 82 81" fill="none" xmlns="http://www.w3.org/2000/svg">
<rect x="0.5" width="81" height="81" rx="40.5" fill="#E6E8F7"/>
<path d="M36.8293 35.6943L35 37.7777L36.8293 39.861" stroke="#031AAF" stroke-width="1.5" stroke-miterlimit="10" stroke-linecap="round" stroke-linejoin="round"/>
<path d="M45.3657 35.6943L47.195 37.7777L45.3657 39.861" stroke="#031AAF" stroke-width="1.5" stroke-miterlimit="10" stroke-linecap="round" stroke-linejoin="round"/>
<path d="M42.3171 35L39.8781 40.5556" stroke="#031AAF" stroke-width="1.5" stroke-miterlimit="10" stroke-linecap="round" stroke-linejoin="round"/>
<path d="M62.6151 30.0928C63.0465 29.8322 63.6322 30.0275 63.7024 30.5265C63.7536 30.8899 63.7803 31.2612 63.7803 31.6387V46.8887C63.7803 51.3069 60.1986 54.8887 55.7803 54.8887H26.0488C21.6306 54.8887 18.0488 51.3069 18.0488 46.8887V31.6387C18.0488 31.5525 18.0502 31.4667 18.0528 31.3812C18.0674 30.9083 18.5698 30.6419 19.0156 30.8003C19.3365 30.9143 19.5526 31.2265 19.5492 31.5671C19.5489 31.5909 19.5488 31.6148 19.5488 31.6387V46.8887C19.5488 49.0978 22.459 50.8887 26.0488 50.8887H55.7803C59.3701 50.8887 62.2803 49.0978 62.2803 46.8887V31.6387C62.2803 31.3803 62.265 31.1255 62.2355 30.8751C62.1988 30.5638 62.3469 30.2549 62.6151 30.0928ZM49.5177 23.6387C49.8764 23.6387 50.1715 23.9222 50.2242 24.277C50.2901 24.7199 49.9626 25.1387 49.5147 25.1387H30.6259C30.1781 25.1387 29.8505 24.7199 29.9164 24.277C29.9691 23.9222 30.2642 23.6387 30.6229 23.6387H49.5177Z" fill="#031AAF"/>
<path d="M61 45L60.9951 45.2061C60.8913 47.2512 59.2512 48.8913 57.2061 48.9951L57 49H25L24.7939 48.9951C22.7488 48.8913 21.1087 47.2512 21.0049 45.2061L21 45V32.5713C21.7821 32.8478 22.6232 33 23.5 33C24.0137 33 24.5153 32.948 25 32.8496V45H57V32.9492C57.2842 32.9819 57.5733 33 57.8662 33C58.9853 33 60.0462 32.753 61 32.3135V45ZM50.5166 27C50.8345 28.566 51.6405 29.9539 52.7686 31H28.5977C29.7257 29.954 30.5318 28.5659 30.8496 27H50.5166Z" fill="#031AAF"/>
<path d="M57.3781 16.4468C53.8783 16.4468 51.0264 19.6948 51.0264 23.6806C51.0264 27.6664 53.8783 30.9144 57.3781 30.9144C60.8778 30.9144 63.7297 27.6664 63.7297 23.6806C63.7297 19.6948 60.8778 16.4468 57.3781 16.4468ZM59.5122 25.3444C59.6964 25.5541 59.6964 25.9014 59.5122 26.1111C59.4169 26.2196 59.2962 26.2703 59.1756 26.2703C59.0549 26.2703 58.9342 26.2196 58.8389 26.1111L57.3781 24.4474L55.9172 26.1111C55.8219 26.2196 55.7012 26.2703 55.5805 26.2703C55.4599 26.2703 55.3392 26.2196 55.2439 26.1111C55.0597 25.9014 55.0597 25.5541 55.2439 25.3444L56.7048 23.6806L55.2439 22.0168C55.0597 21.807 55.0597 21.4598 55.2439 21.25C55.4281 21.0402 55.733 21.0402 55.9172 21.25L57.3781 22.9138L58.8389 21.25C59.0231 21.0402 59.328 21.0402 59.5122 21.25C59.6964 21.4598 59.6964 21.807 59.5122 22.0168L58.0513 23.6806L59.5122 25.3444Z" fill="#6D7AD1"/>
<path d="M22.622 16.4468C19.1222 16.4468 16.2703 19.6948 16.2703 23.6806C16.2703 27.6664 19.1222 30.9144 22.622 30.9144C26.1217 30.9144 28.9736 27.6664 28.9736 23.6806C28.9736 19.6948 26.1217 16.4468 22.622 16.4468ZM25.658 22.0168L22.0567 26.1184C21.9677 26.2196 21.8471 26.2775 21.72 26.2775C21.593 26.2775 21.4723 26.2196 21.3834 26.1184L19.5859 24.0712C19.4017 23.8614 19.4017 23.5142 19.5859 23.3044C19.7701 23.0946 20.0749 23.0946 20.2591 23.3044L21.72 24.9682L24.9848 21.25C25.169 21.0402 25.4738 21.0402 25.658 21.25C25.8422 21.4598 25.8422 21.7998 25.658 22.0168Z" fill="#6D7AD1"/>
<rect x="32.6829" y="57.6665" width="15.8537" height="2.77778" fill="#031AAF"/>
<path d="M25.366 65.833C25.366 63.6239 27.1568 61.833 29.366 61.833H52.4635C54.6727 61.833 56.4635 63.6239 56.4635 65.833V65.9997H25.366V65.833Z" fill="#031AAF"/>
</svg>
