<svg width="82" height="81" viewBox="0 0 82 81" fill="none" xmlns="http://www.w3.org/2000/svg">
<rect x="0.5" width="81" height="81" rx="40.5" fill="#E6E8F7"/>
<path d="M36.75 57.375C29.6789 57.375 26.1434 57.375 23.9467 55.1782C21.75 52.9817 21.75 49.446 21.75 42.375V41.9062H59.25V42.375C59.25 44.4739 59.25 46.2613 59.1926 47.7947L59.1656 47.7759C58.2679 45.2406 55.9262 43.3125 53.0001 43.3125C50.1654 43.3125 47.8866 45.1127 46.9279 47.5312H43.3125C42.5359 47.5312 41.9062 48.1609 41.9062 48.9375C41.9062 49.7141 42.5359 50.3438 43.3125 50.3438H44.9196C43.9108 51.4123 43.3125 52.8671 43.3125 54.3971C43.3125 55.461 43.6018 56.4885 44.1172 57.375H36.75Z" fill="#6D7AD1"/>
<path d="M36.75 23.625H44.25C51.321 23.625 54.8567 23.625 57.0532 25.8217C59.25 28.0184 59.25 31.5539 59.25 38.625V39.0938H21.75V38.625C21.75 31.5539 21.75 28.0184 23.9467 25.8217C26.1434 23.625 29.6789 23.625 36.75 23.625Z" fill="#6D7AD1"/>
<path fill-rule="evenodd" clip-rule="evenodd" d="M56.7268 49.6511C56.5181 47.6674 54.9293 46.125 53.0001 46.125C51.4155 46.125 50.0604 47.1656 49.5112 48.6366C49.3427 49.0883 49.2501 49.5804 49.2501 50.0955C49.2501 50.5806 49.3322 51.0454 49.4826 51.4749C49.3061 51.4384 49.1239 51.4191 48.9375 51.4191C48.1127 51.4191 47.3707 51.795 46.8564 52.3939C46.4019 52.9228 46.125 53.6258 46.125 54.3971C46.125 56.0417 47.3842 57.375 48.9375 57.375H55.5C57.5711 57.375 59.25 55.5973 59.25 53.4045C59.25 51.6664 58.1953 50.1892 56.7268 49.6511Z" fill="#1C274C"/>
<path d="M56.7268 49.6511C56.5181 47.6674 54.9293 46.125 53.0001 46.125C51.4155 46.125 50.0604 47.1656 49.5112 48.6366C49.3427 49.0883 49.2501 49.5804 49.2501 50.0955C49.2501 50.5806 49.3322 51.0454 49.4826 51.4749C49.3061 51.4384 49.1239 51.4191 48.9375 51.4191C48.1127 51.4191 47.3707 51.795 46.8564 52.3939C46.4019 52.9228 46.125 53.6258 46.125 54.3971C46.125 56.0417 47.3842 57.375 48.9375 57.375H55.5C57.5711 57.375 59.25 55.5973 59.25 53.4045C59.25 51.6664 58.1953 50.1892 56.7268 49.6511Z" fill="#031AAF"/>
<path d="M41.9062 32.0625C41.9062 31.2859 42.5359 30.6562 43.3125 30.6562H51.75C52.5266 30.6562 53.1562 31.2859 53.1562 32.0625C53.1562 32.8391 52.5266 33.4688 51.75 33.4688H43.3125C42.5359 33.4688 41.9062 32.8391 41.9062 32.0625Z" fill="#031AAF"/>
<path d="M29.25 52.2188C28.4734 52.2188 27.8438 51.5891 27.8438 50.8125V47.0625C27.8438 46.2859 28.4734 45.6562 29.25 45.6562C30.0266 45.6562 30.6562 46.2859 30.6562 47.0625V50.8125C30.6562 51.5891 30.0266 52.2188 29.25 52.2188Z" fill="#031AAF"/>
<path d="M29.25 35.3438C28.4734 35.3438 27.8438 34.7141 27.8438 33.9375V30.1875C27.8438 29.4109 28.4734 28.7812 29.25 28.7812C30.0266 28.7812 30.6562 29.4109 30.6562 30.1875V33.9375C30.6562 34.7141 30.0266 35.3438 29.25 35.3438Z" fill="#031AAF"/>
<path d="M34.875 52.2188C34.0984 52.2188 33.4688 51.5891 33.4688 50.8125V47.0625C33.4688 46.2859 34.0984 45.6562 34.875 45.6562C35.6516 45.6562 36.2812 46.2859 36.2812 47.0625V50.8125C36.2812 51.5891 35.6516 52.2188 34.875 52.2188Z" fill="#031AAF"/>
<path d="M34.875 35.3438C34.0984 35.3438 33.4688 34.7141 33.4688 33.9375V30.1875C33.4688 29.4109 34.0984 28.7812 34.875 28.7812C35.6516 28.7812 36.2812 29.4109 36.2812 30.1875V33.9375C36.2812 34.7141 35.6516 35.3438 34.875 35.3438Z" fill="#031AAF"/>
<path fill-rule="evenodd" clip-rule="evenodd" d="M59.25 41.9062H21.75V39.0938H59.25V41.9062Z" fill="#031AAF"/>
</svg>
